<svg width="97" height="59" viewBox="0 0 97 59"  xmlns="http://www.w3.org/2000/svg">

    <g id='logo'>
        <g clip-path="url(#clip0_2_5657)">
            <path
                d="M12.5581 0V3.83066C11.5028 3.83066 10.6796 3.98157 10.0882 4.28338C9.49679 4.57357 9.24169 5.15977 9.32287 6.04199L9.86206 11.1785C10.0012 12.4786 9.85626 13.5292 9.42722 14.3301C9.00978 15.131 8.36623 15.7464 7.49655 16.1758C6.63848 16.5938 5.62386 16.8897 4.45271 17.0638C5.69343 17.2495 6.74284 17.5514 7.60092 17.9693C8.45899 18.3871 9.08516 18.9907 9.47941 19.7801C9.87366 20.5695 10.0012 21.6258 9.86206 22.9492L9.32287 28.0857C9.24169 28.9679 9.49679 29.5541 10.0882 29.8443C10.6796 30.146 11.5028 30.297 12.5581 30.297V34.1277C9.35765 34.1277 7.1081 33.6401 5.80939 32.6651C4.52229 31.7016 4.00048 30.0475 4.24398 27.7026L4.76579 22.7227C4.85856 21.8406 4.70782 21.1499 4.31357 20.6507C3.93091 20.1516 3.36272 19.8033 2.60901 19.6059C1.85529 19.3971 0.985626 19.2926 0 19.2926V14.8351C0.97403 14.8351 1.8379 14.7364 2.59162 14.5391C3.34533 14.3301 3.91932 13.9761 4.31357 13.477C4.70782 12.9778 4.85856 12.2871 4.76579 11.4049L4.24398 6.45987C3.98889 4.06861 4.51068 2.39706 5.80939 1.4452C7.1081 0.481734 9.35765 0 12.5581 0Z"
                fill="url(#paint0_linear_2_5657)" />
            <path
                d="M27.633 4.50977C30.5087 4.50977 32.6771 5.62414 34.1381 7.85288C35.6108 10.07 36.3471 13.1636 36.3471 17.1335C36.3471 21.115 35.6108 24.2318 34.1381 26.4838C32.6771 28.7242 30.5087 29.8443 27.633 29.8443C24.7342 29.8443 22.5541 28.7242 21.0931 26.4838C19.6436 24.2318 18.9189 21.115 18.9189 17.1335C18.9189 13.1636 19.6436 10.07 21.0931 7.85288C22.5541 5.62414 24.7342 4.50977 27.633 4.50977ZM27.633 8.49713C26.4039 8.49713 25.5052 9.15879 24.937 10.4821C24.3689 11.7938 24.0847 14.0109 24.0847 17.1335C24.0847 18.1551 24.1022 19.0663 24.1369 19.8672C24.1718 20.6566 24.224 21.3589 24.2935 21.9741L30.1724 9.66374C29.8942 9.22264 29.5463 8.92083 29.1289 8.75831C28.7231 8.5842 28.2244 8.49713 27.633 8.49713ZM31.1465 17.1335C31.1465 15.7986 31.1175 14.6726 31.0595 13.7555L25.511 25.2302C25.7662 25.4739 26.0676 25.6422 26.4154 25.7351C26.775 25.8279 27.1808 25.8744 27.633 25.8744C28.4564 25.8744 29.1231 25.5958 29.6333 25.0387C30.1551 24.4815 30.5377 23.5644 30.7812 22.2875C31.0248 20.999 31.1465 19.281 31.1465 17.1335Z"
                fill="url(#paint1_linear_2_5657)" />
            <path
                d="M48.5002 4.50977C51.3759 4.50977 53.5443 5.62414 55.0053 7.85288C56.478 10.07 57.2142 13.1636 57.2142 17.1335C57.2142 21.115 56.478 24.2318 55.0053 26.4838C53.5443 28.7242 51.3759 29.8443 48.5002 29.8443C45.6012 29.8443 43.4213 28.7242 41.9603 26.4838C40.5108 24.2318 39.7861 21.115 39.7861 17.1335C39.7861 13.1636 40.5108 10.07 41.9603 7.85288C43.4213 5.62414 45.6012 4.50977 48.5002 4.50977ZM48.5002 8.49713C47.2711 8.49713 46.3724 9.15879 45.8042 10.4821C45.2361 11.7938 44.9519 14.0109 44.9519 17.1335C44.9519 18.1551 44.9694 19.0663 45.0041 19.8672C45.0389 20.6566 45.0911 21.3589 45.1607 21.9741L51.0396 9.66374C50.7613 9.22264 50.4134 8.92083 49.9961 8.75831C49.5901 8.5842 49.0915 8.49713 48.5002 8.49713ZM52.0137 17.1335C52.0137 15.7986 51.9847 14.6726 51.9267 13.7555L46.3782 25.2302C46.6332 25.4739 46.9348 25.6422 47.2826 25.7351C47.6422 25.8279 48.048 25.8744 48.5002 25.8744C49.3234 25.8744 49.9902 25.5958 50.5005 25.0387C51.0222 24.4815 51.4049 23.5644 51.6484 22.2875C51.8919 20.999 52.0137 19.281 52.0137 17.1335Z"
                fill="url(#paint2_linear_2_5657)" />
            <path
                d="M68.1146 29.8095L62.8966 28.1902L71.889 9.26321H61.2964V5.11914H77.4549V8.84532L68.1146 29.8095Z"
                fill="url(#paint3_linear_2_5657)" />
            <path
                d="M84.4419 0C87.6423 0 89.8861 0.481734 91.1732 1.4452C92.4719 2.40867 92.9995 4.06862 92.756 6.42505L92.2342 11.4049C92.1414 12.2871 92.2921 12.9778 92.6864 13.477C93.0807 13.9761 93.6488 14.3301 94.3909 14.5391C95.1447 14.7364 96.0144 14.8351 97 14.8351V19.2926C96.0259 19.2926 95.1621 19.3971 94.4083 19.6059C93.6547 19.8033 93.0807 20.1516 92.6864 20.6507C92.2921 21.1499 92.1414 21.8406 92.2342 22.7227L92.756 27.6678C93.0227 30.0475 92.5009 31.719 91.1905 32.6824C89.8918 33.646 87.6423 34.1277 84.4419 34.1277V30.297C85.5088 30.297 86.3378 30.146 86.9291 29.8443C87.5206 29.5541 87.7699 28.9679 87.6772 28.0857L87.1379 22.9492C86.9988 21.6374 87.1379 20.5868 87.5553 19.7976C87.9844 18.9965 88.6338 18.3871 89.5035 17.9693C90.373 17.5397 91.3935 17.238 92.5646 17.0638C91.3239 16.8781 90.2688 16.5763 89.3991 16.1584C88.5409 15.7405 87.9149 15.1369 87.5206 14.3476C87.1263 13.5466 86.9988 12.4903 87.1379 11.1785L87.6772 6.04199C87.7699 5.15977 87.5147 4.57357 86.9118 4.28338C86.3204 3.98157 85.4971 3.83066 84.4419 3.83066V0Z"
                fill="url(#paint4_linear_2_5657)" />
            <path
                d="M12.2746 42.1621C13.2417 42.1621 14.0209 42.4024 14.6122 42.883C15.2037 43.3635 15.635 44.0426 15.9064 44.9202C16.1846 45.7977 16.3238 46.839 16.3238 48.0439C16.3238 49.1862 16.1568 50.2065 15.8229 51.1049C15.4889 51.9964 15.0054 52.6999 14.3723 53.2153C13.7391 53.7238 12.9703 53.978 12.0659 53.978C10.9875 53.978 10.1108 53.5914 9.43597 52.8182V57.9061L6.13818 58.2509V42.5278H9.06028L9.20639 43.771C9.65862 43.1929 10.1526 42.782 10.6883 42.5382C11.224 42.2875 11.7528 42.1621 12.2746 42.1621ZM11.2519 44.5964C10.8692 44.5964 10.5318 44.7113 10.2396 44.9411C9.94735 45.1709 9.67948 45.4843 9.43597 45.8813V50.5617C9.66557 50.903 9.9056 51.1537 10.1561 51.3139C10.4135 51.474 10.7161 51.5542 11.064 51.5542C11.6484 51.5542 12.1041 51.2895 12.4312 50.7601C12.7582 50.2238 12.9216 49.3325 12.9216 48.0857C12.9216 47.1663 12.8555 46.456 12.7233 45.9545C12.5912 45.4461 12.3999 45.0943 12.1493 44.8993C11.8989 44.6973 11.5997 44.5964 11.2519 44.5964Z"
                fill="url(#paint5_linear_2_5657)" />
            <path
                d="M27.9881 50.4259C27.9881 50.8437 28.0437 51.1467 28.1551 51.3348C28.2733 51.5228 28.4612 51.6657 28.7186 51.7631L28.0403 53.9362C27.3862 53.8735 26.8332 53.7307 26.3809 53.5078C25.9356 53.278 25.5843 52.9332 25.3269 52.4736C24.9025 52.982 24.3598 53.3615 23.6989 53.6123C23.0379 53.856 22.3631 53.978 21.6743 53.978C20.5332 53.978 19.6218 53.6541 18.94 53.0063C18.2651 52.3517 17.9277 51.5124 17.9277 50.4886C17.9277 49.2837 18.3974 48.3538 19.3366 47.6991C20.2827 47.0445 21.6116 46.7172 23.3231 46.7172H24.8155V46.2992C24.8155 45.164 24.085 44.5964 22.6239 44.5964C22.2692 44.5964 21.8134 44.6486 21.2568 44.7531C20.7002 44.8505 20.1436 44.9932 19.587 45.1813L18.8252 42.9875C19.5419 42.7159 20.2863 42.5103 21.0585 42.3711C21.8377 42.2318 22.5335 42.1621 23.1457 42.1621C24.7946 42.1621 26.0121 42.4999 26.7983 43.1754C27.5915 43.8441 27.9881 44.8122 27.9881 46.0798V50.4259ZM22.8117 51.6169C23.1666 51.6169 23.5389 51.5124 23.9285 51.3034C24.3181 51.0876 24.6137 50.7846 24.8155 50.3946V48.5977H24.0015C23.0831 48.5977 22.4083 48.7404 21.9769 49.0259C21.5456 49.3045 21.3299 49.7155 21.3299 50.2588C21.3299 50.6836 21.4585 51.0179 21.716 51.2616C21.9804 51.4985 22.3457 51.6169 22.8117 51.6169Z"
                fill="url(#paint6_linear_2_5657)" />
            <path
                d="M41.6355 42.5276L37.9412 53.6225H34.059L30.3228 42.5276H33.8815L36.0418 51.0943L38.2959 42.5276H41.6355Z"
                fill="url(#paint7_linear_2_5657)" />
            <path
                d="M53.0286 50.4259C53.0286 50.8437 53.0843 51.1467 53.1956 51.3348C53.3139 51.5228 53.5017 51.6657 53.7591 51.7631L53.0808 53.9362C52.4267 53.8735 51.8737 53.7307 51.4215 53.5078C50.9762 53.278 50.6249 52.9332 50.3674 52.4736C49.9431 52.982 49.4003 53.3615 48.7394 53.6123C48.0784 53.856 47.4036 53.978 46.7148 53.978C45.5738 53.978 44.6623 53.6541 43.9805 53.0063C43.3057 52.3517 42.9683 51.5124 42.9683 50.4886C42.9683 49.2837 43.4379 48.3538 44.3771 47.6991C45.3233 47.0445 46.6522 46.7172 48.3637 46.7172H49.856V46.2992C49.856 45.164 49.1255 44.5964 47.6645 44.5964C47.3097 44.5964 46.8539 44.6486 46.2973 44.7531C45.7407 44.8505 45.1842 44.9932 44.6276 45.1813L43.8658 42.9875C44.5824 42.7159 45.3268 42.5103 46.099 42.3711C46.8783 42.2318 47.574 42.1621 48.1862 42.1621C49.8351 42.1621 51.0527 42.4999 51.8388 43.1754C52.632 43.8441 53.0286 44.8122 53.0286 46.0798V50.4259ZM47.8523 51.6169C48.2071 51.6169 48.5794 51.5124 48.969 51.3034C49.3586 51.0876 49.6543 50.7846 49.856 50.3946V48.5977H49.0421C48.1236 48.5977 47.4488 48.7404 47.0175 49.0259C46.5861 49.3045 46.3704 49.7155 46.3704 50.2588C46.3704 50.6836 46.4992 51.0179 46.7565 51.2616C47.0209 51.4985 47.3862 51.6169 47.8523 51.6169Z"
                fill="url(#paint8_linear_2_5657)" />
            <path
                d="M56.2188 53.6227V42.5278H59.0992L59.3288 43.8128C59.8227 43.2556 60.3444 42.8412 60.8942 42.5696C61.4437 42.2979 62.0699 42.1621 62.7726 42.1621C63.7188 42.1621 64.4633 42.4511 65.006 43.0293C65.5486 43.6074 65.8199 44.4222 65.8199 45.4739V53.6227H62.5222V46.4246C62.5222 45.7421 62.4457 45.2685 62.2925 45.0037C62.1464 44.7322 61.8682 44.5964 61.4576 44.5964C61.1098 44.5964 60.7759 44.7077 60.4558 44.9307C60.1427 45.1535 59.8296 45.4634 59.5166 45.8604V53.6227H56.2188Z"
                fill="url(#paint9_linear_2_5657)" />
            <path
                d="M76.9314 42.1621C77.7174 42.1621 78.2985 42.4199 78.6742 42.9353C79.0568 43.4436 79.2481 44.269 79.2481 45.4112V53.6227H76.42V45.7873C76.42 45.3973 76.3817 45.1222 76.3052 44.962C76.2356 44.8017 76.0894 44.7217 75.8668 44.7217C75.693 44.7217 75.512 44.774 75.3241 44.8784C75.1433 44.9759 74.9415 45.164 74.7189 45.4425V53.6227H72.4021V45.7873C72.4021 45.3973 72.3638 45.1222 72.2873 44.962C72.2177 44.8017 72.0716 44.7217 71.8489 44.7217C71.6751 44.7217 71.4941 44.774 71.3062 44.8784C71.1254 44.9759 70.9236 45.164 70.701 45.4425V53.6227H67.8311V42.5278H70.2522L70.4714 43.6038C70.8193 43.1302 71.1707 42.7715 71.5254 42.5278C71.8803 42.284 72.3012 42.1621 72.7882 42.1621C73.2056 42.1621 73.5604 42.27 73.8527 42.486C74.1519 42.695 74.3641 43.0257 74.4893 43.4784C74.8233 43.0884 75.192 42.7715 75.5955 42.5278C75.9991 42.284 76.4443 42.1621 76.9314 42.1621Z"
                fill="url(#paint10_linear_2_5657)" />
            <path
                d="M91.1004 40.7517L91.8728 43.1754C91.4832 43.3287 91.0274 43.4401 90.5057 43.5097C89.9838 43.5794 89.3751 43.6142 88.6794 43.6142C89.3751 43.9137 89.9038 44.2863 90.2656 44.7321C90.6344 45.1708 90.8187 45.7489 90.8187 46.4664C90.8187 47.1837 90.6274 47.8245 90.2448 48.3886C89.862 48.9458 89.3195 49.3846 88.6168 49.705C87.9141 50.0254 87.0826 50.1856 86.1225 50.1856C85.6633 50.1856 85.2354 50.1438 84.8389 50.0602C84.7205 50.1229 84.6302 50.2133 84.5676 50.3318C84.5049 50.4502 84.4736 50.5721 84.4736 50.6975C84.4736 50.8716 84.5431 51.0283 84.6824 51.1675C84.8285 51.3069 85.1659 51.3765 85.6946 51.3765H87.5105C88.3732 51.3765 89.1176 51.5158 89.7438 51.7944C90.3769 52.0729 90.8674 52.4526 91.2153 52.9331C91.5631 53.4137 91.7371 53.964 91.7371 54.5839C91.7371 55.7191 91.2397 56.6141 90.2448 57.2688C89.2498 57.9234 87.7714 58.2509 85.8094 58.2509C84.3901 58.2509 83.2908 58.1046 82.5117 57.812C81.7393 57.5265 81.2002 57.1156 80.8941 56.5792C80.5949 56.0499 80.4453 55.4196 80.4453 54.6882H83.3673C83.3673 55.0087 83.43 55.2699 83.5552 55.4718C83.6874 55.6808 83.9344 55.8341 84.2962 55.9315C84.6649 56.029 85.1972 56.0778 85.8929 56.0778C86.5956 56.0778 87.1313 56.022 87.5 55.9107C87.8688 55.7992 88.1192 55.646 88.2515 55.4509C88.3906 55.2629 88.4602 55.0505 88.4602 54.8136C88.4602 54.4863 88.3314 54.2217 88.0741 54.0197C87.8166 53.8177 87.4097 53.7167 86.853 53.7167H85.0893C83.8926 53.7167 83.0229 53.4973 82.4803 53.0585C81.9376 52.6128 81.6663 52.0938 81.6663 51.5019C81.6663 51.091 81.7741 50.701 81.9898 50.3318C82.2124 49.9627 82.5221 49.6527 82.9187 49.402C82.209 49.0258 81.701 48.5836 81.3949 48.0752C81.0888 47.5598 80.9358 46.9434 80.9358 46.226C80.9358 45.3902 81.148 44.6729 81.5724 44.0739C81.9968 43.4679 82.5811 43.0013 83.3256 42.674C84.077 42.3467 84.9329 42.1829 85.8929 42.1829C86.7208 42.1968 87.441 42.1412 88.0532 42.0158C88.6654 41.8834 89.2151 41.7059 89.7021 41.4829C90.189 41.2531 90.6552 41.0093 91.1004 40.7517ZM85.9764 44.3246C85.4546 44.3246 85.0406 44.4918 84.7345 44.8262C84.4283 45.1535 84.2753 45.6062 84.2753 46.1843C84.2753 46.7971 84.4319 47.2673 84.745 47.5946C85.058 47.9219 85.4686 48.0857 85.9764 48.0857C87.1034 48.0857 87.667 47.4379 87.667 46.1425C87.667 44.9306 87.1034 44.3246 85.9764 44.3246Z"
                fill="url(#paint11_linear_2_5657)" />
        </g>
        <defs>
            <linearGradient id="paint0_linear_2_5657" x1="-2.05005" y1="36.7549" x2="99.9719"
                y2="0.679714" gradientUnits="userSpaceOnUse">
                <stop stop-color="#00C0FD" />
                <stop offset="1" stop-color="#E70FAA" />
            </linearGradient>
            <linearGradient id="paint1_linear_2_5657" x1="-2.05004" y1="36.755" x2="99.972"
                y2="0.679755" gradientUnits="userSpaceOnUse">
                <stop stop-color="#00C0FD" />
                <stop offset="1" stop-color="#E70FAA" />
            </linearGradient>
            <linearGradient id="paint2_linear_2_5657" x1="-2.04988" y1="36.755" x2="99.9721"
                y2="0.679757" gradientUnits="userSpaceOnUse">
                <stop stop-color="#00C0FD" />
                <stop offset="1" stop-color="#E70FAA" />
            </linearGradient>
            <linearGradient id="paint3_linear_2_5657" x1="-2.05005" y1="36.7549" x2="99.9719"
                y2="0.679708" gradientUnits="userSpaceOnUse">
                <stop stop-color="#00C0FD" />
                <stop offset="1" stop-color="#E70FAA" />
            </linearGradient>
            <linearGradient id="paint4_linear_2_5657" x1="-2.05008" y1="36.7549" x2="99.9719"
                y2="0.679722" gradientUnits="userSpaceOnUse">
                <stop stop-color="#00C0FD" />
                <stop offset="1" stop-color="#E70FAA" />
            </linearGradient>
            <linearGradient id="paint5_linear_2_5657" x1="-0.244359" y1="59.3455" x2="93.6381"
                y2="39.507" gradientUnits="userSpaceOnUse">
                <stop stop-color="#13B0F5" />
                <stop offset="1" stop-color="#CA24B4" />
            </linearGradient>
            <linearGradient id="paint6_linear_2_5657" x1="-0.24451" y1="59.3455" x2="93.638"
                y2="39.507"
                gradientUnits="userSpaceOnUse">
                <stop stop-color="#13B0F5" />
                <stop offset="1" stop-color="#CA24B4" />
            </linearGradient>
            <linearGradient id="paint7_linear_2_5657" x1="-0.24437" y1="59.3453" x2="93.6381"
                y2="39.5068" gradientUnits="userSpaceOnUse">
                <stop stop-color="#13B0F5" />
                <stop offset="1" stop-color="#CA24B4" />
            </linearGradient>
            <linearGradient id="paint8_linear_2_5657" x1="-0.244339" y1="59.3455" x2="93.6381"
                y2="39.507" gradientUnits="userSpaceOnUse">
                <stop stop-color="#13B0F5" />
                <stop offset="1" stop-color="#CA24B4" />
            </linearGradient>
            <linearGradient id="paint9_linear_2_5657" x1="-0.244556" y1="59.3455" x2="93.6379"
                y2="39.507" gradientUnits="userSpaceOnUse">
                <stop stop-color="#13B0F5" />
                <stop offset="1" stop-color="#CA24B4" />
            </linearGradient>
            <linearGradient id="paint10_linear_2_5657" x1="-0.244473" y1="59.3455" x2="93.638"
                y2="39.507" gradientUnits="userSpaceOnUse">
                <stop stop-color="#13B0F5" />
                <stop offset="1" stop-color="#CA24B4" />
            </linearGradient>
            <linearGradient id="paint11_linear_2_5657" x1="-0.244413" y1="59.3454" x2="93.6381"
                y2="39.5069" gradientUnits="userSpaceOnUse">
                <stop stop-color="#13B0F5" />
                <stop offset="1" stop-color="#CA24B4" />
            </linearGradient>
            <clipPath id="clip0_2_5657">
                <rect width="97" height="59" />
            </clipPath>
        </defs>
    </g>


    <g id='smallBuilding'>
            <path d="M0.5 0.5V9.5H3.5V7.75H4.5V9.5H7.5V0.5H0.5ZM1.5 1.5H2.5V2.5H1.5V1.5ZM3.5 1.5H4.5V2.5H3.5V1.5ZM5.5 1.5H6.5V2.5H5.5V1.5ZM1.5 3.5H2.5V4.5H1.5V3.5ZM3.5 3.5H4.5V4.5H3.5V3.5ZM5.5 3.5H6.5V4.5H5.5V3.5ZM1.5 5.5H2.5V6.5H1.5V5.5ZM3.5 5.5H4.5V6.5H3.5V5.5ZM5.5 5.5H6.5V6.5H5.5V5.5ZM1.5 7.5H2.5V8.5H1.5V7.5ZM5.5 7.5H6.5V8.5H5.5V7.5Z" fill="#A7A7A7"/>
            


    </g>
    <g id='date'>
            <path d="M5.33341 6.5C5.1566 6.5 4.98703 6.44732 4.86201 6.35355C4.73699 6.25979 4.66675 6.13261 4.66675 6C4.66675 5.86739 4.73699 5.74021 4.86201 5.64645C4.98703 5.55268 5.1566 5.5 5.33341 5.5C5.51023 5.5 5.67979 5.55268 5.80482 5.64645C5.92984 5.74021 6.00008 5.86739 6.00008 6C6.00008 6.13261 5.92984 6.25979 5.80482 6.35355C5.67979 6.44732 5.51023 6.5 5.33341 6.5ZM5.33341 8.5C5.1566 8.5 4.98703 8.44732 4.86201 8.35355C4.73699 8.25979 4.66675 8.13261 4.66675 8C4.66675 7.86739 4.73699 7.74021 4.86201 7.64645C4.98703 7.55268 5.1566 7.5 5.33341 7.5C5.51023 7.5 5.67979 7.55268 5.80482 7.64645C5.92984 7.74021 6.00008 7.86739 6.00008 8C6.00008 8.13261 5.92984 8.25979 5.80482 8.35355C5.67979 8.44732 5.51023 8.5 5.33341 8.5ZM7.33341 8C7.33341 8.13261 7.40365 8.25979 7.52868 8.35355C7.6537 8.44732 7.82327 8.5 8.00008 8.5C8.17689 8.5 8.34646 8.44732 8.47149 8.35355C8.59651 8.25979 8.66675 8.13261 8.66675 8C8.66675 7.86739 8.59651 7.74021 8.47149 7.64645C8.34646 7.55268 8.17689 7.5 8.00008 7.5C7.82327 7.5 7.6537 7.55268 7.52868 7.64645C7.40365 7.74021 7.33341 7.86739 7.33341 8ZM10.6667 8.5C10.4899 8.5 10.3204 8.44732 10.1953 8.35355C10.0703 8.25979 10.0001 8.13261 10.0001 8C10.0001 7.86739 10.0703 7.74021 10.1953 7.64645C10.3204 7.55268 10.4899 7.5 10.6667 7.5C10.8436 7.5 11.0131 7.55268 11.1382 7.64645C11.2632 7.74021 11.3334 7.86739 11.3334 8C11.3334 8.13261 11.2632 8.25979 11.1382 8.35355C11.0131 8.44732 10.8436 8.5 10.6667 8.5ZM7.33341 6C7.33341 6.13261 7.40365 6.25979 7.52868 6.35355C7.6537 6.44732 7.82327 6.5 8.00008 6.5C8.17689 6.5 8.34646 6.44732 8.47149 6.35355C8.59651 6.25979 8.66675 6.13261 8.66675 6C8.66675 5.86739 8.59651 5.74021 8.47149 5.64645C8.34646 5.55268 8.17689 5.5 8.00008 5.5C7.82327 5.5 7.6537 5.55268 7.52868 5.64645C7.40365 5.74021 7.33341 5.86739 7.33341 6ZM10.6667 6.5C10.4899 6.5 10.3204 6.44732 10.1953 6.35355C10.0703 6.25979 10.0001 6.13261 10.0001 6C10.0001 5.86739 10.0703 5.74021 10.1953 5.64645C10.3204 5.55268 10.4899 5.5 10.6667 5.5C10.8436 5.5 11.0131 5.55268 11.1382 5.64645C11.2632 5.74021 11.3334 5.86739 11.3334 6C11.3334 6.13261 11.2632 6.25979 11.1382 6.35355C11.0131 6.44732 10.8436 6.5 10.6667 6.5ZM5.33341 3.5C5.1566 3.5 4.98703 3.55268 4.86201 3.64645C4.73699 3.74021 4.66675 3.86739 4.66675 4C4.66675 4.13261 4.73699 4.25979 4.86201 4.35355C4.98703 4.44732 5.1566 4.5 5.33341 4.5H10.6667C10.8436 4.5 11.0131 4.44732 11.1382 4.35355C11.2632 4.25979 11.3334 4.13261 11.3334 4C11.3334 3.86739 11.2632 3.74021 11.1382 3.64645C11.0131 3.55268 10.8436 3.5 10.6667 3.5H5.33341Z" fill="#A7A7A7"/>
            <path fill-rule="evenodd" clip-rule="evenodd" d="M4 1.5C3.46957 1.5 2.96086 1.65804 2.58579 1.93934C2.21071 2.22064 2 2.60218 2 3V9C2 9.39782 2.21071 9.77936 2.58579 10.0607C2.96086 10.342 3.46957 10.5 4 10.5H12C12.5304 10.5 13.0391 10.342 13.4142 10.0607C13.7893 9.77936 14 9.39782 14 9V3C14 2.60218 13.7893 2.22064 13.4142 1.93934C13.0391 1.65804 12.5304 1.5 12 1.5H4ZM12 2.5H4C3.82319 2.5 3.65362 2.55268 3.5286 2.64645C3.40357 2.74021 3.33333 2.86739 3.33333 3V9C3.33333 9.13261 3.40357 9.25979 3.5286 9.35355C3.65362 9.44732 3.82319 9.5 4 9.5H12C12.1768 9.5 12.3464 9.44732 12.4714 9.35355C12.5964 9.25979 12.6667 9.13261 12.6667 9V3C12.6667 2.86739 12.5964 2.74021 12.4714 2.64645C12.3464 2.55268 12.1768 2.5 12 2.5Z" fill="#A7A7A7"/>
            


    </g>

    <g id='wall'>
            <g opacity="0.5">
            <path d="M714.509 231.003L597.003 299.867" stroke="#B2B2B2"/>
            <path d="M645.645 113.497L528.139 182.361" stroke="url(#paint0_linear_15_2063)"/>
            <path d="M597.003 299.867L528.139 182.361" stroke="#B2B2B2"/>
            <path d="M714.509 231.003L645.645 113.497" stroke="#B2B2B2"/>
            <path d="M597.003 299.867L440.328 391.686" stroke="#B2B2B2"/>
            <path d="M528.139 182.361L371.464 274.181" stroke="url(#paint1_linear_15_2063)"/>
            <path d="M440.329 391.687L371.464 274.181" stroke="#B2B2B2"/>
            <path d="M597.003 299.867L528.139 182.361" stroke="url(#paint2_linear_15_2063)"/>
            <path d="M97.2837 434.865L214.79 366" stroke="#B2B2B2"/>
            <path d="M166.148 552.37L283.654 483.506" stroke="#B2B2B2"/>
            <path d="M214.79 366L283.654 483.506" stroke="#B2B2B2"/>
            <path d="M97.2837 434.865L166.148 552.37" stroke="#B2B2B2"/>
            <path d="M214.79 366L371.464 274.181" stroke="url(#paint3_linear_15_2063)"/>
            <path d="M283.654 483.506L440.329 391.687" stroke="#B2B2B2"/>
            <path d="M214.79 366L283.654 483.506" stroke="#B2B2B2"/>
            <path d="M440.328 391.687L557.834 322.822" stroke="#B2B2B2"/>
            <path d="M509.193 509.193L626.699 440.328" stroke="#B2B2B2"/>
            <path d="M557.834 322.822L626.699 440.328" stroke="#B2B2B2"/>
            <path d="M557.834 322.822L714.509 231.003" stroke="#B2B2B2"/>
            <path d="M557.834 322.822L626.698 440.328" stroke="#B2B2B2"/>
            <path d="M509.193 509.192L391.687 578.057" stroke="#B2B2B2"/>
            <path d="M440.329 391.686L322.823 460.551" stroke="#B2B2B2"/>
            <path d="M391.687 578.057L322.823 460.551" stroke="#B2B2B2"/>
            <path d="M391.687 578.057L235.012 669.876" stroke="#B2B2B2"/>
            <path d="M322.823 460.551L166.148 552.37" stroke="#B2B2B2"/>
            <path d="M235.013 669.876L166.148 552.37" stroke="url(#paint4_linear_15_2063)"/>
            <path d="M391.687 578.057L322.823 460.551" stroke="#B2B2B2"/>
            <path d="M734.729 534.879L578.054 626.698" stroke="#B2B2B2"/>
            <path d="M665.865 417.373L509.19 509.192" stroke="#B2B2B2"/>
            <path d="M578.054 626.698L509.19 509.192" stroke="#B2B2B2"/>
            <path d="M235.01 669.876L352.515 601.011" stroke="#B2B2B2"/>
            <path d="M303.874 787.382L421.38 718.517" stroke="#B2B2B2"/>
            <path d="M352.516 601.011L421.38 718.517" stroke="#B2B2B2"/>
            <path d="M235.01 669.876L303.874 787.382" stroke="#B2B2B2"/>
            <path d="M352.516 601.011L509.191 509.192" stroke="url(#paint5_linear_15_2063)"/>
            <path d="M421.38 718.517L578.055 626.698" stroke="#B2B2B2"/>
            <path d="M352.516 601.011L421.381 718.517" stroke="#B2B2B2"/>
            <path d="M578.054 626.698L695.56 557.834" stroke="#B2B2B2"/>
            <path d="M646.919 744.204L529.413 813.068" stroke="#B2B2B2"/>
            <path d="M578.054 626.698L460.549 695.562" stroke="#B2B2B2"/>
            <path d="M529.413 813.068L460.549 695.562" stroke="#B2B2B2"/>
            <path d="M529.413 813.068L372.739 904.887" stroke="#B2B2B2"/>
            <path d="M460.549 695.562L303.874 787.382" stroke="#B2B2B2"/>
            <path d="M372.739 904.888L303.874 787.382" stroke="#B2B2B2"/>
            <path d="M529.413 813.068L460.549 695.562" stroke="url(#paint6_linear_15_2063)"/>
            </g>
            <defs>
            <linearGradient id="paint0_linear_15_2063" x1="621.653" y1="107.235" x2="562.831" y2="160.098" gradientUnits="userSpaceOnUse">
            <stop stop-color="#13B0F5"/>
            <stop offset="1" stop-color="#CA24B4"/>
            </linearGradient>
            <linearGradient id="paint1_linear_15_2063" x1="527.723" y1="183.954" x2="427.611" y2="316.567" gradientUnits="userSpaceOnUse">
            <stop stop-color="#E70FAA"/>
            <stop offset="1" stop-color="#13B0F5"/>
            </linearGradient>
            <linearGradient id="paint2_linear_15_2063" x1="603.265" y1="275.875" x2="550.402" y2="217.053" gradientUnits="userSpaceOnUse">
            <stop stop-color="#13B0F5"/>
            <stop offset="1" stop-color="#CA24B4"/>
            </linearGradient>
            <linearGradient id="paint3_linear_15_2063" x1="246.778" y1="374.349" x2="325.208" y2="303.866" gradientUnits="userSpaceOnUse">
            <stop stop-color="#00C0FD"/>
            <stop offset="0.421875" stop-color="#E70FAA"/>
            <stop offset="1" stop-color="#00C0FD"/>
            </linearGradient>
            <linearGradient id="paint4_linear_15_2063" x1="235.013" y1="669.876" x2="134.428" y2="594.956" gradientUnits="userSpaceOnUse">
            <stop stop-color="#8E34FF"/>
            <stop offset="0.494792" stop-color="#CA24B4"/>
            <stop offset="1" stop-color="#8E34FF"/>
            </linearGradient>
            <linearGradient id="paint5_linear_15_2063" x1="392.585" y1="577.866" x2="465.959" y2="479.806" gradientUnits="userSpaceOnUse">
            <stop stop-color="#13B0F5"/>
            <stop offset="0.75" stop-color="#CA24B4"/>
            <stop offset="1" stop-color="#13B0F5"/>
            </linearGradient>
            <linearGradient id="paint6_linear_15_2063" x1="529.413" y1="813.068" x2="428.829" y2="738.149" gradientUnits="userSpaceOnUse">
            <stop stop-color="#13B0F5"/>
            <stop offset="0.0582928" stop-color="#CA24B4"/>
            <stop offset="1" stop-color="#13B0F5"/>
            </linearGradient>
            </defs>
           
            

    </g>

    <g id='map'>
        <path
            d="M6 6.75C5.62916 6.75 5.26665 6.64003 4.95831 6.43401C4.64996 6.22798 4.40964 5.93514 4.26773 5.59253C4.12581 5.24992 4.08868 4.87292 4.16103 4.50921C4.23338 4.14549 4.41195 3.8114 4.67418 3.54918C4.9364 3.28695 5.27049 3.10838 5.63421 3.03603C5.99792 2.96368 6.37492 3.00081 6.71753 3.14273C7.06014 3.28464 7.35298 3.52496 7.55901 3.83331C7.76503 4.14165 7.875 4.50416 7.875 4.875C7.87441 5.3721 7.67667 5.84867 7.32517 6.20017C6.97367 6.55167 6.4971 6.74941 6 6.75ZM6 3.75C5.7775 3.75 5.55999 3.81598 5.37498 3.9396C5.18998 4.06321 5.04579 4.23892 4.96064 4.44448C4.87549 4.65005 4.85321 4.87625 4.89662 5.09448C4.94003 5.31271 5.04717 5.51316 5.20451 5.6705C5.36184 5.82783 5.5623 5.93498 5.78052 5.97838C5.99875 6.02179 6.22495 5.99951 6.43052 5.91437C6.63609 5.82922 6.81179 5.68502 6.9354 5.50002C7.05902 5.31501 7.125 5.09751 7.125 4.875C7.1247 4.57672 7.00608 4.29075 6.79517 4.07983C6.58425 3.86892 6.29828 3.7503 6 3.75Z"
             />
        <path
            d="M6 11.25L2.8365 7.51912C2.79255 7.4631 2.74905 7.40673 2.706 7.35C2.16562 6.63817 1.87369 5.76871 1.875 4.875C1.875 3.78098 2.3096 2.73177 3.08319 1.95818C3.85678 1.1846 4.90599 0.75 6 0.75C7.09402 0.75 8.14323 1.1846 8.91682 1.95818C9.69041 2.73177 10.125 3.78098 10.125 4.875C10.1263 5.7683 9.83452 6.63737 9.29438 7.34888L9.294 7.35C9.294 7.35 9.1815 7.49775 9.16463 7.51763L6 11.25ZM3.3045 6.89813C3.30525 6.89813 3.39225 7.01362 3.41213 7.03837L6 10.0905L8.59125 7.03425C8.60775 7.01362 8.6955 6.89738 8.69588 6.897C9.13731 6.31542 9.37587 5.60514 9.375 4.875C9.375 3.97989 9.01942 3.12145 8.38649 2.48851C7.75355 1.85558 6.89511 1.5 6 1.5C5.1049 1.5 4.24645 1.85558 3.61352 2.48851C2.98058 3.12145 2.625 3.97989 2.625 4.875C2.62422 5.60559 2.86305 6.31628 3.30488 6.89813H3.3045Z"
             />

    </g>

    <g id='chain'>
        <path d="M10.2867 7.71333C9.60408 7.03103 8.67846 6.64774 7.71334 6.64774C6.74821 6.64774 5.82259 7.03103 5.14 7.71333L2.56584 10.2867C1.88324 10.9693 1.49976 11.8951 1.49976 12.8604C1.49976 13.8258 1.88324 14.7516 2.56584 15.4342C3.24844 16.1168 4.17424 16.5002 5.13959 16.5002C6.10493 16.5002 7.03074 16.1168 7.71334 15.4342L9 14.1475"  fill="transparent" stroke-width="1.66667" stroke-linecap="round" stroke-linejoin="round"/>
        <path d="M7.71338 10.2867C8.39597 10.969 9.32159 11.3523 10.2867 11.3523C11.2518 11.3523 12.1775 10.969 12.86 10.2867L15.4342 7.71334C16.1168 7.03074 16.5003 6.10493 16.5003 5.13959C16.5003 4.17424 16.1168 3.24844 15.4342 2.56584C14.7516 1.88324 13.8258 1.49976 12.8605 1.49976C11.8951 1.49976 10.9693 1.88324 10.2867 2.56584L9.00005 3.8525"  fill="transparent" stroke-width="1.66667" stroke-linecap="round" stroke-linejoin="round"/>
        
    </g>

    <!-- social -->
    <g id='git'>

        <path fill-rule="evenodd" clip-rule="evenodd"
            d="M15 0C6.7125 0 0 6.7125 0 15C0 21.6375 4.29375 27.2437 10.2563 29.2313C11.0063 29.3625 11.2875 28.9125 11.2875 28.5188C11.2875 28.1625 11.2688 26.9813 11.2688 25.725C7.5 26.4188 6.525 24.8062 6.225 23.9625C6.05625 23.5312 5.325 22.2 4.6875 21.8438C4.1625 21.5625 3.4125 20.8687 4.66875 20.85C5.85 20.8313 6.69375 21.9375 6.975 22.3875C8.325 24.6562 10.4812 24.0187 11.3438 23.625C11.475 22.65 11.8688 21.9937 12.3 21.6187C8.9625 21.2437 5.475 19.95 5.475 14.2125C5.475 12.5813 6.05625 11.2313 7.0125 10.1813C6.8625 9.80625 6.3375 8.26875 7.1625 6.20625C7.1625 6.20625 8.41875 5.8125 11.2875 7.74375C12.4875 7.40625 13.7625 7.2375 15.0375 7.2375C16.3125 7.2375 17.5875 7.40625 18.7875 7.74375C21.6562 5.79375 22.9125 6.20625 22.9125 6.20625C23.7375 8.26875 23.2125 9.80625 23.0625 10.1813C24.0188 11.2313 24.6 12.5625 24.6 14.2125C24.6 19.9688 21.0938 21.2437 17.7563 21.6187C18.3 22.0875 18.7688 22.9875 18.7688 24.3937C18.7688 26.4 18.75 28.0125 18.75 28.5188C18.75 28.9125 19.0312 29.3813 19.7812 29.2313C22.759 28.2259 25.3465 26.3121 27.1796 23.7592C29.0127 21.2063 29.9991 18.1429 30 15C30 6.7125 23.2875 0 15 0Z"
             />


    </g>

    <g id='twitter'>
        <path
            d="M15.875 0.875C7.59152 0.875 0.875 7.59152 0.875 15.875C0.875 24.1585 7.59152 30.875 15.875 30.875C24.1585 30.875 30.875 24.1585 30.875 15.875C30.875 7.59152 24.1585 0.875 15.875 0.875ZM23.0837 12.1819C23.0937 12.3393 23.0937 12.5033 23.0937 12.6641C23.0937 17.5792 19.3504 23.2411 12.51 23.2411C10.4007 23.2411 8.44531 22.6283 6.79799 21.5737C7.09933 21.6071 7.38728 21.6205 7.69531 21.6205C9.43638 21.6205 11.0368 21.0312 12.3125 20.0335C10.6786 20 9.3058 18.9286 8.83705 17.4554C9.4096 17.5391 9.92522 17.5391 10.5145 17.3884C9.67319 17.2175 8.91699 16.7605 8.37438 16.0953C7.83178 15.43 7.53623 14.5973 7.53795 13.7388V13.692C8.03013 13.9699 8.60938 14.1406 9.2154 14.1641C8.70595 13.8245 8.28814 13.3645 7.99903 12.8249C7.70993 12.2852 7.55845 11.6825 7.55804 11.0703C7.55804 10.3772 7.73884 9.74442 8.06362 9.19531C8.99744 10.3449 10.1627 11.2851 11.4837 11.9548C12.8047 12.6245 14.2518 13.0088 15.731 13.0826C15.2054 10.5547 17.0938 8.50893 19.3638 8.50893C20.4353 8.50893 21.3996 8.95759 22.0792 9.6808C22.9196 9.52344 23.7232 9.2087 24.4397 8.78683C24.1618 9.64732 23.5792 10.3739 22.8058 10.8326C23.5558 10.7522 24.279 10.5446 24.9487 10.2533C24.4431 10.9967 23.8103 11.6562 23.0837 12.1819Z"
             />

    </g>

    <g id='in'>

        <path
            d="M15.0001 0.600098C7.0471 0.600098 0.600098 7.0471 0.600098 15.0001C0.600098 22.9531 7.0471 29.4001 15.0001 29.4001C22.9531 29.4001 29.4001 22.9531 29.4001 15.0001C29.4001 7.0471 22.9531 0.600098 15.0001 0.600098ZM11.4751 20.9686H8.5591V11.5846H11.4751V20.9686ZM9.9991 10.4326C9.0781 10.4326 8.4826 9.7801 8.4826 8.9731C8.4826 8.1496 9.0961 7.5166 10.0366 7.5166C10.9771 7.5166 11.5531 8.1496 11.5711 8.9731C11.5711 9.7801 10.9771 10.4326 9.9991 10.4326ZM22.1251 20.9686H19.2091V15.7681C19.2091 14.5576 18.7861 13.7356 17.7316 13.7356C16.9261 13.7356 16.4476 14.2921 16.2361 14.8276C16.1581 15.0181 16.1386 15.2881 16.1386 15.5566V20.9671H13.2211V14.5771C13.2211 13.4056 13.1836 12.4261 13.1446 11.5831H15.6781L15.8116 12.8866H15.8701C16.2541 12.2746 17.1946 11.3716 18.7681 11.3716C20.6866 11.3716 22.1251 12.6571 22.1251 15.4201V20.9686Z"
             />


    </g>


    <!-- Stacks -->
    <g id='HTML'>
            <path d="M22.1323 102.004L13.7061 7.5H106.294L97.856 101.989L59.9436 112.5L22.1323 102.004Z" fill="#E44F26"/>
            <path d="M60 104.468L90.6375 95.9738L97.845 15.2288H60V104.468Z" fill="#F1662A"/>
            <path d="M60 50.2762H44.6625L43.605 38.4075H60V26.8162H30.9375L31.215 29.9287L34.0613 61.8675H60V50.2762ZM60 80.3775L59.9475 80.3925L47.04 76.9087L46.215 67.665H34.5787L36.2025 85.86L59.9475 92.4525L60 92.4375V80.3775Z" fill="#EBEBEB"/>
            <path d="M59.959 50.2762V61.8675H74.2315L72.889 76.9012L59.959 80.3887V92.4487L83.7227 85.86L83.8952 83.9025L86.6177 53.3887L86.9027 50.2762H59.959ZM59.959 26.8162V38.4075H87.9565L88.189 35.805L88.7177 29.9287L88.9952 26.8162H59.959Z" fill="white"/>
           
            
    </g>


    <g id='CSS'>
            <path d="M22.1325 101.154L13.71 7.4375H106.29L97.8562 101.139L59.9437 111.562L22.1325 101.154Z" fill="#1572B6"/>
            <path d="M60 103.597L90.6375 95.174L97.845 15.1019H60V103.597Z" fill="#33A9DC"/>
            <path d="M60 49.054H75.3375L76.395 37.2842H60V25.7896H89.0625L88.785 28.8724L85.9387 60.5487H60V49.054Z" fill="white"/>
            <path d="M60.0711 78.9045L60.0186 78.9193L47.1112 75.4609L46.2862 66.2942H34.6499L36.2737 84.3413L60.0149 90.8788L60.0711 90.864V78.9045Z" fill="#EBEBEB"/>
            <path d="M74.3513 60.0615L72.9563 75.4534L60.03 78.9119V90.8714L83.79 84.3412L83.9663 82.4001L85.98 60.0615H74.3513Z" fill="white"/>
            <path d="M60.0411 25.7896V37.2842H32.0436L31.8111 34.6997L31.2824 28.8724L31.0049 25.7896H60.0411ZM59.9999 49.054V60.5487H47.2536L47.0211 57.9642L46.4961 52.1369L46.2186 49.054H59.9999Z" fill="#EBEBEB"/>
            

    </g>


    <g id='JS'>
            <path d="M7.5 7.5H112.5V112.5H7.5V7.5Z" fill="#F5DE19"/>
            <path d="M78.0338 89.5312C78.9284 91.3485 80.3183 92.8759 82.0434 93.9375C83.7684 94.9991 85.7584 95.5515 87.7838 95.5313C91.8713 95.5313 94.485 93.4875 94.485 90.6562C94.485 87.2812 91.8 86.0738 87.3 84.105L84.8325 83.0475C77.7075 80.0138 72.9825 76.215 72.9825 68.1825C72.9825 60.7838 78.6075 55.1475 87.4313 55.1475C90.2877 54.9412 93.1416 55.5805 95.637 56.9856C98.1324 58.3907 100.159 60.4994 101.464 63.0488L93.75 67.98C93.2476 66.716 92.3728 65.6345 91.2416 64.879C90.1105 64.1236 88.7764 63.7298 87.4163 63.75C86.8229 63.6906 86.2236 63.7555 85.6567 63.9404C85.0897 64.1254 84.5675 64.4265 84.1234 64.8244C83.6792 65.2224 83.3228 65.7085 83.0769 66.2518C82.831 66.7951 82.7009 67.3837 82.695 67.98C82.695 70.9388 84.5288 72.1388 88.7625 73.98L91.23 75.0375C99.615 78.6338 104.355 82.2975 104.355 90.5363C104.355 99.42 97.3763 104.287 88.005 104.287C84.3537 104.52 80.713 103.691 77.5223 101.901C74.3317 100.11 71.7274 97.4342 70.0238 94.1963L78.0338 89.5312ZM43.1775 90.3863C44.7263 93.135 46.1363 95.46 49.5263 95.46C52.7663 95.46 54.8138 94.1925 54.8138 89.2612V55.71H64.68V89.3925C64.68 99.6075 58.68 104.257 49.9463 104.257C46.8591 104.426 43.7931 103.657 41.1513 102.051C38.5096 100.444 36.4157 98.0761 35.145 95.2575L43.1775 90.3863Z" fill="black"/>
            

    </g>
    <g id='REACT'>
            <g clip-path="url(#clip0_2_5687)">
            <path d="M92.9055 32.7027C91.703 32.2887 90.4903 31.9051 89.2686 31.5523C89.4738 30.7106 89.6627 29.8792 89.8304 29.0623C92.5837 15.6483 90.7838 4.84178 84.6359 1.28375C78.7415 -2.12722 69.1015 1.42949 59.3658 9.93342C58.4063 10.773 57.4681 11.6368 56.552 12.524C55.9388 11.934 55.3148 11.3556 54.6802 10.7888C44.4766 1.69616 34.2492 -2.13608 28.108 1.43215C22.2188 4.85374 20.4749 15.0127 22.9537 27.7254C23.2003 28.9844 23.4787 30.237 23.7887 31.4819C22.341 31.8947 20.9441 32.3342 19.6072 32.8019C7.64431 36.9881 0.00463867 43.5483 0.00463867 50.3529C0.00463867 57.3808 8.20617 64.43 20.666 68.7043C21.6762 69.0495 22.6947 69.3692 23.7208 69.6634C23.3875 71.0042 23.0917 72.354 22.8336 73.7114C20.4705 86.2035 22.3159 96.1223 28.1892 99.5222C34.2554 103.033 44.4369 99.4247 54.3505 90.7268C55.1544 90.0196 55.9406 89.2925 56.7083 88.546C57.7003 89.5066 58.7188 90.4393 59.7626 91.343C69.3659 99.6365 78.85 102.985 84.7176 99.5762C90.7781 96.055 92.7479 85.3995 90.1906 72.4356C89.9891 71.42 89.7632 70.4094 89.5131 69.4047C90.2281 69.1921 90.9299 68.9732 91.614 68.7455C104.567 64.4384 112.995 57.4747 112.995 50.3529C112.995 43.5234 105.109 36.919 92.9055 32.7027ZM90.0961 64.1474C89.4782 64.3525 88.8444 64.5505 88.1982 64.7432C86.7682 60.1995 84.8385 55.3684 82.4768 50.3764C84.7304 45.5036 86.5859 40.734 87.9758 36.22C89.1317 36.5558 90.2533 36.9097 91.3346 37.2832C101.791 40.8961 108.168 46.2372 108.168 50.3529C108.168 54.7367 101.28 60.4277 90.0961 64.1474ZM85.4556 73.3765C86.5864 79.1087 86.7475 84.2916 85.9985 88.3435C85.3258 91.9844 83.9726 94.4115 82.2989 95.3839C78.7384 97.4526 71.1234 94.7637 62.9109 87.6706C61.94 86.8305 60.9926 85.9634 60.0698 85.0703C63.2538 81.5756 66.4356 77.5131 69.5411 73.0008C75.0035 72.5144 80.164 71.7188 84.8438 70.6331C85.0693 71.5426 85.2732 72.4573 85.4556 73.3765ZM38.5256 95.0264C35.0467 96.2592 32.2758 96.2946 30.6008 95.3254C27.0368 93.2624 25.5551 85.298 27.5761 74.6151C27.8164 73.3527 28.0914 72.0972 28.401 70.8502C33.0292 71.8779 38.1522 72.6168 43.6274 73.0624C46.7541 77.4776 50.0277 81.5358 53.327 85.0894C52.6258 85.7703 51.9081 86.4338 51.1744 87.0793C46.7903 90.9252 42.3973 93.654 38.5256 95.0264ZM22.2276 64.1204C16.718 62.2302 12.1679 59.7738 9.04919 57.0933C6.24649 54.6848 4.8319 52.2932 4.8319 50.3529C4.8319 46.2234 10.9656 40.9564 21.1961 37.3766C22.4377 36.9425 23.7371 36.5327 25.0855 36.1482C26.4996 40.7641 28.3543 45.5904 30.5924 50.4707C28.3251 55.4233 26.444 60.3267 25.0162 64.997C24.0796 64.7278 23.1498 64.4355 22.2276 64.1204ZM27.6909 26.7947C25.5674 15.9031 26.9776 7.68706 30.5267 5.62497C34.3066 3.42867 42.6652 6.56011 51.4754 14.4115C52.0499 14.9247 52.6151 15.4482 53.1707 15.9819C49.8878 19.52 46.6442 23.548 43.5453 27.9371C38.2312 28.4315 33.1444 29.2253 28.4677 30.2889C28.1795 29.131 27.9205 27.9661 27.6909 26.7951V26.7947ZM76.43 38.8739C75.3254 36.9589 74.1797 35.0679 72.9939 33.2024C76.599 33.66 80.0532 34.2673 83.2968 35.0098C82.3232 38.1425 81.1094 41.4175 79.6807 44.7753C78.6364 42.7867 77.5526 40.8191 76.43 38.8739ZM56.5542 19.4443C58.7805 21.8652 61.0103 24.5678 63.2035 27.5003C58.7545 27.2894 54.298 27.2886 49.849 27.4977C52.0443 24.5922 54.2931 21.8931 56.5542 19.4443ZM36.5509 38.9071C35.4424 40.8367 34.3788 42.792 33.3612 44.7713C31.9558 41.4255 30.7531 38.1355 29.7711 34.9584C32.9948 34.2346 36.4326 33.6427 40.0148 33.1935C38.8158 35.0704 37.6608 36.9754 36.5509 38.9067V38.9071ZM40.1176 67.8569C36.4168 67.4423 32.9273 66.881 29.7044 66.1767C30.7019 62.9429 31.9311 59.5829 33.3669 56.1653C34.3886 58.1461 35.4566 60.1026 36.5699 62.033C37.7148 64.0176 38.9003 65.9614 40.1176 67.8569ZM56.6875 81.6027C54.3995 79.1255 52.1176 76.3848 49.8891 73.4372C52.0527 73.5222 54.2582 73.5656 56.5 73.5656C58.803 73.5656 61.0796 73.5138 63.3204 73.4137C61.1202 76.4145 58.8988 79.1592 56.6875 81.6027ZM79.7262 55.9907C81.2365 59.446 82.5094 62.7883 83.5202 65.9667C80.2443 66.7171 76.7072 67.3214 72.9803 67.7701C74.1745 65.8699 75.331 63.9461 76.449 61.9998C77.5857 60.0214 78.6783 58.0179 79.7262 55.9907ZM72.2679 59.5794C70.5563 62.5634 68.7486 65.4909 66.8474 68.357C63.4037 68.6018 59.9523 68.7234 56.5 68.7216C52.9836 68.7216 49.5634 68.6118 46.2699 68.3974C44.3191 65.5378 42.4769 62.6053 40.747 59.6059H40.7475C39.0258 56.6225 37.4176 53.5745 35.9264 50.4685C37.4138 47.3618 39.0171 44.3124 40.7329 41.3267L40.7325 41.3271C42.4476 38.3407 44.2752 35.4206 46.2112 32.5734C49.5713 32.3182 53.0171 32.1853 56.4995 32.1853H56.5C59.9983 32.1853 63.4484 32.3195 66.8077 32.5765C68.7242 35.4195 70.5401 38.3295 72.252 41.301C73.9735 44.2801 75.598 47.3147 77.123 50.3999C75.6137 53.5166 73.9943 56.5783 72.2679 59.5794ZM82.2252 5.48056C86.0086 7.67067 87.4801 16.5024 85.1029 28.0842C84.9511 28.8231 84.7807 29.5757 84.5953 30.339C79.9071 29.2528 74.8168 28.4452 69.4873 27.9433C66.3827 23.506 63.1655 19.4717 59.936 15.9792C60.7824 15.1604 61.6489 14.3628 62.5348 13.5871C70.8767 6.30141 78.673 3.42468 82.2252 5.48056ZM56.5 40.2263C62.0723 40.2263 66.5897 44.7603 66.5897 50.3529C66.5897 55.9456 62.0723 60.4795 56.5 60.4795C50.9277 60.4795 46.4102 55.9456 46.4102 50.3529C46.4102 44.7603 50.9277 40.2263 56.5 40.2263Z" fill="#00D8FF"/>
            </g>
            <defs>
            <clipPath id="clip0_2_5687">
            <rect width="113" height="101" fill="white"/>
            </clipPath>
            </defs>
            


    </g>


    <g id='REDUX'>
            <path d="M72.6971 69.5627C76.5688 69.1619 79.5061 65.8242 79.3725 61.8184C79.2393 57.8131 75.9012 54.6086 71.8959 54.6086H71.6291C67.4897 54.7422 64.2856 58.2135 64.4193 62.3525C64.5529 64.3553 65.3537 66.091 66.5553 67.2926C62.016 76.2385 55.0734 82.7807 44.6594 88.2549C37.5832 91.9934 30.2402 93.3287 22.8971 92.3943C16.8889 91.593 12.216 88.923 9.27827 84.5164C5.00614 77.9742 4.60573 70.8975 8.21065 63.8213C10.7475 58.7475 14.7525 55.009 17.2893 53.1398C16.7553 51.4041 15.9541 48.4668 15.5537 46.3307C-3.80574 60.35 -1.80287 79.3094 4.07172 88.2549C8.47745 94.9311 17.4229 99.0701 27.3029 99.0701C29.9729 99.0701 32.643 98.8029 35.3135 98.1357C52.4033 94.7975 65.3541 84.65 72.6971 69.5627ZM96.1955 53.0066C86.0483 41.1234 71.0951 34.5811 54.0053 34.5811H51.8693C50.6676 32.1779 48.1307 30.5754 45.327 30.5754H45.0598C40.9213 30.709 37.7172 34.1803 37.8504 38.3197C37.984 42.325 41.3217 45.5295 45.327 45.5295H45.5938C48.5311 45.3959 51.068 43.5266 52.1361 40.9898H54.5393C64.6865 40.9898 74.2992 43.927 82.9779 49.6684C89.6533 54.0746 94.4598 59.816 97.1299 66.7586C99.3996 72.3664 99.266 77.8406 96.8627 82.5139C93.1246 89.5902 86.8496 93.4623 78.5717 93.4623C73.2311 93.4623 68.1578 91.8598 65.4873 90.6582C64.0188 91.9934 61.3484 94.1295 59.4791 95.4652C65.2205 98.1352 71.0951 99.6041 76.7025 99.6041C89.5197 99.6041 98.9992 92.5275 102.604 85.4512C106.476 77.707 106.209 64.3553 96.1955 53.0066ZM28.3709 71.832C28.5045 75.8377 31.8422 79.0418 35.8475 79.0418H36.1147C40.2537 78.9086 43.4578 75.4369 43.3242 71.2979C43.191 67.2922 39.8529 64.0881 35.8475 64.0881H35.5807C35.3135 64.0881 34.9127 64.0881 34.6463 64.2213C29.1721 55.1422 26.9025 45.2623 27.7037 34.5807C28.2373 26.5697 30.9078 19.6266 35.5807 13.8852C39.4525 8.94508 46.9291 6.5418 52.0029 6.40861C66.1549 6.14139 72.1627 23.7656 72.5635 30.8422C74.2992 31.2426 77.2365 32.1775 79.2393 32.8451C77.6369 11.2156 64.2856 0 51.4688 0C39.4524 0 28.3709 8.67869 23.9647 21.4963C17.8234 38.5865 21.8287 55.009 29.3053 67.9602C28.6381 68.8947 28.2373 70.3635 28.3709 71.8324V71.832Z" fill="#764ABC"/>
            

    </g>


    <g id='BOOTSTRAP'>
            <g clip-path="url(#clip0_2_5691)">
            <path d="M0 75.7821C0 81.9781 5.08028 87 11.3468 87H76.6528C82.9204 87 88 81.9774 88 75.7821V11.2182C88 5.02187 82.9197 0 76.6532 0H11.3472C5.07959 0 0 5.02255 0 11.2179V75.7818V75.7821Z" fill="#563D7C"/>
            <path d="M36.4919 38.4832V26.1629H47.4613C48.5063 26.1629 49.5135 26.2489 50.4836 26.4212C51.4536 26.5931 52.312 26.9003 53.0583 27.3431C53.8042 27.786 54.4013 28.4007 54.8492 29.1875C55.2968 29.9746 55.5209 30.9829 55.5209 32.2121C55.5209 34.4255 54.8492 36.0241 53.5058 37.0076C52.1628 37.9915 50.4464 38.4832 48.3568 38.4832H36.4919ZM24.7759 17.1621V69.8379H50.5956C52.9837 69.8379 55.3095 69.5429 57.5731 68.9526C59.8367 68.3623 61.8514 67.4525 63.6176 66.223C65.3834 64.9934 66.789 63.407 67.8337 61.4645C68.8787 59.5216 69.4008 57.2222 69.4008 54.5663C69.4008 51.2709 68.5923 48.4553 66.9757 46.1192C65.3587 43.7828 62.9084 42.1474 59.6249 41.2129C62.0129 40.0819 63.8166 38.6307 65.0355 36.8601C66.2541 35.0895 66.8636 32.8765 66.8636 30.2203C66.8636 27.7612 66.4532 25.6956 65.6323 24.0232C64.8114 22.3512 63.6547 21.0108 62.1621 20.0025C60.6699 18.9942 58.879 18.2686 56.7893 17.8262C54.7 17.3833 52.3866 17.1621 49.8493 17.1621H24.7759ZM36.4919 60.8371V46.3771H49.2523C51.7895 46.3771 53.8293 46.9548 55.3717 48.111C56.9138 49.2668 57.6851 51.1971 57.6851 53.9023C57.6851 55.2797 57.4486 56.4107 56.976 57.296C56.5033 58.1813 55.8691 58.8823 55.073 59.3986C54.2772 59.9151 53.3566 60.2839 52.312 60.5054C51.267 60.7263 50.1728 60.8371 49.0285 60.8371H36.4919Z" fill="white"/>
            </g>
            <defs>
            <clipPath id="clip0_2_5691">
            <rect width="88" height="87" fill="white"/>
            </clipPath>
            </defs>
            


    </g>


    <g id='TAILWIND'>
            <path d="M28.8438 23.0844C32.6646 7.80103 42.2167 0.159363 57.5 0.159363C80.425 0.159363 83.2906 17.3531 94.7531 20.2187C102.395 22.1292 109.081 19.2635 114.812 11.6219C110.992 26.9052 101.44 34.5469 86.1562 34.5469C63.2313 34.5469 60.3656 17.3531 48.9031 14.4875C41.2615 12.5771 34.575 15.4427 28.8438 23.0844ZM0.1875 57.4719C4.00833 42.1885 13.5604 34.5469 28.8438 34.5469C51.7687 34.5469 54.6344 51.7406 66.0969 54.6062C73.7385 56.5167 80.425 53.651 86.1562 46.0094C82.3354 61.2927 72.7833 68.9344 57.5 68.9344C34.575 68.9344 31.7094 51.7406 20.2469 48.875C12.6052 46.9646 5.91875 49.8302 0.1875 57.4719Z" fill="#44A8B3"/>
             
    </g>

    <g id='SASS'>
            <path d="M100.673 50.0766C96.603 50.0975 93.0653 51.0694 90.1035 52.5063C89.0162 50.3721 87.9295 48.4708 87.738 47.076C87.5246 45.4493 87.2691 44.4561 87.5246 42.5122C87.7805 40.5683 88.9312 37.8001 88.9098 37.589C88.8887 37.3778 88.6538 36.3846 86.3098 36.3637C83.9658 36.3424 81.9413 36.8073 81.7068 37.42C81.4724 38.0326 81.025 39.4273 80.7266 40.8637C80.3216 42.9771 76.0386 50.5198 73.5881 54.471C72.7993 52.9291 72.1174 51.5765 71.968 50.499C71.755 48.8722 71.4991 47.879 71.755 45.9351C72.0109 43.9912 73.1617 41.2235 73.1402 41.0119C73.1187 40.8007 72.8843 39.8075 70.5403 39.7866C68.1958 39.7653 66.1713 40.2302 65.9373 40.8429C65.7029 41.4559 65.4469 42.8923 64.957 44.2871C64.4667 45.6818 58.7769 58.275 57.2852 61.5285C56.6824 62.8453 56.0501 64.1487 55.3886 65.4376C55.3886 65.4376 55.3672 65.501 55.3032 65.6066C55.0954 66.0107 54.8824 66.4122 54.6643 66.811V66.8318C54.3444 67.4028 54.0035 67.9307 53.833 67.9307C53.705 67.9307 53.4706 66.4095 53.8755 64.3387C54.7278 59.9652 56.7524 53.1615 56.7313 52.9291C56.7313 52.8022 57.1148 51.6191 55.4101 51.006C53.7475 50.3934 53.1511 51.4075 53.0017 51.4075C52.8527 51.4075 52.7458 51.7668 52.7458 51.7668C52.7458 51.7668 54.6003 44.118 49.2085 44.118C45.8417 44.118 41.1958 47.7734 38.8943 51.0694C36.278 52.4811 33.6639 53.8968 31.052 55.3166C29.7953 56.0139 28.4951 56.7113 27.2803 57.3661C27.1949 57.2818 27.1099 57.1758 27.0244 57.0915C20.5034 50.1822 8.442 45.3012 8.95339 36.0257C9.14534 32.6449 10.3171 23.7705 32.1178 12.9947C50.0608 4.22583 64.3392 6.65549 66.8111 12.0436C70.3484 19.7349 59.1608 34.0183 40.6204 36.0887C33.5455 36.8708 29.8373 34.1661 28.9 33.152C27.9197 32.0953 27.7703 32.0318 27.4079 32.2435C26.8115 32.5606 27.1949 33.5113 27.4079 34.0605C27.9622 35.4969 30.2422 38.0326 34.0994 39.2796C37.5091 40.378 45.7988 40.991 55.8361 37.1454C67.0666 32.8348 75.8466 20.8546 73.2682 10.8183C70.6893 0.633908 53.641 -2.72556 37.5091 2.95799C27.9197 6.33921 17.52 11.6634 10.0402 18.594C1.15363 26.834 -0.253039 33.997 0.322334 36.9976C2.38984 47.6465 17.2006 54.5771 23.1248 59.7114C22.8263 59.8804 22.5489 60.0286 22.3149 60.1555C19.3526 61.6132 8.05811 67.4658 5.24523 73.6568C2.04891 80.6716 5.75708 85.7009 8.20756 86.3765C15.8154 88.4686 23.6362 84.7076 27.8342 78.4953C32.0323 72.2834 31.5209 64.2119 29.5818 60.5144C29.5604 60.4722 29.5393 60.4296 29.4964 60.3875C30.2637 59.9439 31.052 59.479 31.8194 59.0354C33.2296 58.2088 34.6578 57.4126 36.1029 56.6474C35.3781 58.6126 34.8452 60.958 34.5897 64.3387C34.2698 68.3113 35.9105 73.4665 38.063 75.4947C39.0223 76.3828 40.1515 76.4037 40.8763 76.4037C43.3908 76.4037 44.5205 74.3329 45.7778 71.8819C47.3119 68.8818 48.6971 65.3954 48.6971 65.3954C48.6971 65.3954 46.971 74.8191 51.6595 74.8191C53.3641 74.8191 55.0902 72.6214 55.8575 71.5017V71.5226C55.8575 71.5226 55.9 71.4592 55.9855 71.3114C56.156 71.0368 56.2624 70.8674 56.2624 70.8674V70.8257C56.9443 69.6421 58.4789 66.9587 60.7589 62.5004C63.6998 56.7534 66.5342 49.5696 66.5342 49.5696C66.5342 49.5696 66.7901 51.3232 67.6634 54.239C68.1753 55.9505 69.2401 57.831 70.0929 59.648C69.411 60.5991 68.9846 61.127 68.9846 61.127L69.0061 61.1483C68.4518 61.8665 67.8554 62.6481 67.1945 63.4094C64.8716 66.1558 62.1016 69.3045 61.7178 70.2126C61.2699 71.2901 61.3768 72.0722 62.2296 72.7062C62.8475 73.1711 63.9553 73.234 65.085 73.1711C67.1735 73.0229 68.6437 72.5158 69.3681 72.1991C70.4978 71.7976 71.819 71.1846 73.0548 70.276C75.3352 68.6067 76.72 66.2192 76.5925 63.0714C76.5285 61.3386 75.9531 59.6059 75.2498 57.9787C75.4632 57.6833 75.6547 57.3874 75.8681 57.0915C79.4693 51.8724 82.2612 46.1462 82.2612 46.1462C82.2612 46.1462 82.5171 47.8998 83.3905 50.8161C83.8168 52.2951 84.6907 53.901 85.4575 55.4643C82.0693 58.1903 79.9807 61.3594 79.2349 63.4302C77.8926 67.2759 78.9365 69.0082 80.9185 69.4097C81.8133 69.6 83.092 69.1772 84.0298 68.7757C85.2231 68.3956 86.6297 67.7408 87.9724 66.7684C90.2529 65.0995 92.4474 62.775 92.3195 59.6272C92.2555 58.1903 91.8721 56.7743 91.3392 55.4009C94.2161 54.2182 97.9242 53.563 102.655 54.1122C112.799 55.2953 114.802 61.5706 114.418 64.2123C114.035 66.8531 111.904 68.29 111.201 68.7336C110.497 69.1777 110.263 69.3254 110.327 69.6421C110.412 70.107 110.753 70.0862 111.35 70.0014C112.181 69.8537 116.678 67.8672 116.869 63.0075C117.189 56.7956 111.222 50.0132 100.673 50.0766ZM22.4214 76.2346C19.0542 79.8687 14.3662 81.2421 12.3417 80.0803C10.1681 78.8333 11.0204 73.4665 15.1545 69.6213C17.669 67.2759 20.9083 65.0991 23.0608 63.7683C23.5507 63.4724 24.2755 63.0501 25.1493 62.5217C25.2983 62.437 25.3838 62.3948 25.3838 62.3948L25.8952 62.0776C27.4078 67.5713 25.9591 72.4103 22.4214 76.2346ZM46.9285 59.7114C45.7563 62.543 43.3058 69.7903 41.8141 69.3888C40.5354 69.0508 39.7466 63.5571 41.5582 58.1269C42.4745 55.4009 44.4136 52.147 45.5433 50.8796C47.3759 48.8509 49.4005 48.1744 49.8904 48.9991C50.5087 50.0766 47.6529 57.9365 46.9285 59.7114ZM67.152 69.3041C66.6617 69.5578 66.1932 69.7269 65.9798 69.6C65.8308 69.5153 66.1932 69.1772 66.1932 69.1772C66.1932 69.1772 68.7292 66.473 69.7305 65.2473C70.3063 64.5291 70.9877 63.684 71.7125 62.7329V63.0075C71.7125 66.2405 68.5583 68.4169 67.1516 69.3041H67.152ZM82.7511 65.7756C82.3887 65.5219 82.4527 64.6768 83.6674 62.0355C84.1363 61.0001 85.2441 59.2678 87.1411 57.5985C87.3541 58.2746 87.5035 58.9298 87.4821 59.5424C87.4606 63.6205 84.5202 65.1417 82.7511 65.7756Z" fill="#CD6799"/>
            

    </g>
    <g id='GIT'>
            <path d="M103.02 47.8219L57.1758 1.98038C54.5372 -0.6598 50.2552 -0.6598 47.6134 1.98038L38.0937 11.5001L50.1699 23.5763C52.9762 22.6281 56.1943 23.2642 58.4313 25.5012C60.6789 27.7525 61.3106 30.9981 60.3393 33.8134L71.9775 45.452C74.7932 44.482 78.0421 45.1095 80.291 47.3621C83.434 50.5039 83.434 55.596 80.291 58.7399C77.1471 61.8841 72.055 61.8841 68.9095 58.7399C66.5454 56.3733 65.9613 52.9013 67.1582 49.9888L56.3046 39.1352L56.3034 67.6973C57.0902 68.0863 57.8088 68.6002 58.4313 69.2189C61.5743 72.3607 61.5743 77.4532 58.4313 80.5995C55.2874 83.7422 50.1929 83.7422 47.0535 80.5995C43.9105 77.4532 43.9105 72.3611 47.0535 69.2193C47.8067 68.4658 48.7019 67.869 49.6871 67.4635V38.6352C48.7004 38.2324 47.8048 37.6353 47.0535 36.8793C44.6722 34.5013 44.0996 31.0071 45.3198 28.0831L33.4154 16.1775L1.98105 47.6099C-0.660352 50.2525 -0.660352 54.5349 1.98105 57.1755L47.8259 103.018C50.4652 105.658 54.7464 105.658 57.3891 103.018L103.019 57.3884C105.66 54.747 105.66 50.4621 103.019 47.8219" fill="#DE4C36"/>
            

    </g>
    <g id='MAN'>
            <path d="M58.365 119.745C56.8012 119.471 55.1812 118.729 54.2625 117.908C53.6388 117.253 53.2829 116.389 53.265 115.485C53.265 114.566 53.7337 113.276 54.4762 111.99C54.9262 111.266 55.2787 110.486 55.53 109.665C55.6875 109.099 56.0175 108.18 56.2725 107.595L56.7225 106.523L56.8387 99.3563C56.8987 95.3925 57.015 91.7213 57.1125 91.1513C57.3675 89.5088 57.795 87.9075 58.3612 86.3475L58.7925 85.3125L58.1662 84.9413C57.6 84.5888 57.1312 84.1013 55.275 81.8925C52.9912 79.1963 49.9837 77.7113 45.7237 77.205C44.3362 77.07 42.93 76.9688 41.5237 76.9125C35.2725 76.62 31.6987 75.3113 28.4775 72.1463C26.0737 69.7838 24.825 67.0275 24.3187 62.9663C23.6362 57.4763 22.875 54.6638 21.4687 52.38C21.1221 51.816 20.7228 51.2861 20.2762 50.7975L19.71 50.2313L18.4612 51.0338C17.7787 51.4838 16.8187 52.05 16.35 52.305C14.7862 53.1638 13.3012 54.12 11.8762 55.155C8.38123 57.6938 4.57123 60.8775 2.48248 62.9663C1.54498 63.9038 1.05748 64.3125 0.839976 64.275C-0.585024 64.0613 0.506226 57.8888 2.83123 53.2388C5.80123 47.2425 10.8 41.715 16.5825 37.9838C21.33 34.9163 29.0062 30.6975 32.5575 29.2125C38.865 26.5763 47.0287 23.7225 52.6162 22.2C53.79 21.8663 54.51 21.5738 54.9975 21.2438C56.0925 20.4825 57.165 20.1113 58.395 20.0925C59.43 20.0738 59.5275 20.055 60.525 19.3875C61.6987 18.6263 62.0475 18.585 63.2212 18.9975L63.9825 19.2713L64.92 18.6263L65.8575 18L67.2037 18.0188C68.2387 18.0375 68.7075 18 69.1575 17.805C69.7237 17.55 69.7425 17.5125 69.9 16.575C70.2525 14.5425 70.29 13.5263 70.0762 12.2963C69.8025 10.6763 69.765 4.3875 70.0387 3.15375C70.3312 1.82625 70.5262 1.5525 71.5237 1.065C73.0087 0.341252 74.1225 0.127502 76.68 0.127502C79.8037 0.127502 81.3862 0.558753 82.56 1.69125C83.6137 2.7075 83.79 5.08875 83.2425 10.6763C82.9087 13.8975 82.8712 14.7975 82.9687 16.905C83.0062 18.2513 83.1037 19.5225 83.145 19.6988C83.2237 20.0325 83.3025 20.0513 84.435 20.07C85.5487 20.0888 85.7437 20.1488 86.7975 20.6963C87.8137 21.225 88.575 21.87 88.7325 22.3388C88.7512 22.4363 88.9275 22.4363 89.2387 22.3388C89.8425 22.1625 90.3712 22.3575 90.8025 22.8863C91.0575 23.22 91.2112 23.2763 91.8 23.2763C92.6025 23.2763 92.895 23.4713 93.5587 24.45C93.8692 24.8893 94.2948 25.2344 94.7887 25.4475C95.8837 25.995 97.3687 27.5175 97.935 28.7288C98.8125 30.525 98.9887 32.6138 98.4412 34.4888C98.2462 35.1938 98.2462 35.2125 98.655 35.895C99.5137 37.3613 99.8287 39.1575 99.4762 40.68L99.2812 41.58L99.8662 42.165C102.776 45.075 102.345 49.8225 98.7937 54.06C98.3968 54.544 98.0617 55.0756 97.7962 55.6425C97.1137 57.4575 96.33 58.7288 95.3175 59.7825L94.2825 60.8363H93.2287C92.175 60.8363 90.69 60.4838 89.79 60.015C89.4187 59.82 89.4 59.82 89.4787 60.0525C89.715 60.9113 90.3 64.4063 90.495 66.3413C90.8062 69.3113 90.7087 73.6275 90.3 75.4838C90.0013 76.8586 89.5008 78.1816 88.815 79.41C88.425 80.0363 88.4062 80.1713 88.4812 80.9325C88.5975 82.005 88.3462 83.805 87.915 84.9938C87.3862 86.3813 87.1912 87.0263 87.075 87.7275C86.9775 88.3313 86.9775 88.3313 87.4087 88.3313C87.975 88.3313 88.2862 88.665 88.2862 89.3288C88.2862 89.6213 88.0312 91.2038 87.72 92.8238C86.8612 97.3763 86.8012 97.8825 86.8012 102.296C86.7825 106.849 86.7825 106.808 87.8175 107.49L90.1425 108.994C92.1427 110.321 94.2847 111.422 96.5287 112.275C99.7912 113.565 100.241 113.895 100.241 114.99C100.241 115.478 100.144 115.654 99.735 116.044C98.4862 117.255 96.0225 117.529 91.0612 117C88.4832 116.758 85.8955 116.635 83.3062 116.629C76.47 116.531 75.4725 116.295 74.5762 114.596C74.07 113.621 74.1675 112.35 74.8687 110.261C75.18 109.343 75.4537 108.405 75.69 107.449C76.1587 105.184 75.8475 102.488 74.7525 99.4425L73.815 96.8438C72.8962 94.2075 72.39 89.3813 72.9375 88.29C73.035 88.0763 73.2112 88.035 73.68 88.0538L74.265 88.1138L74.7525 87.0975C75.1237 86.295 75.5325 85.77 76.6462 84.6563L78.0712 83.2313L77.9925 82.3125C77.9325 81.435 76.7812 77.175 76.6237 77.1938C76.5637 77.1938 76.2525 77.625 75.9 78.1688C75.0412 79.4588 73.1475 81.45 72.0712 82.1738C71.6025 82.485 71.2125 82.8563 71.2125 82.9763C71.1937 83.505 70.7437 84.54 70.1962 85.26C69.6675 85.965 69.63 86.0813 69.7087 86.7038C69.8437 87.6225 69.5512 90.57 69.2025 92.115C68.8864 93.2622 68.4541 94.3742 67.9125 95.4338C66.5662 98.2275 65.55 100.725 65.295 101.88C65.1108 102.992 64.9931 104.114 64.9425 105.24C64.8825 106.568 64.7475 107.858 64.65 108.131C64.515 108.503 64.515 108.795 64.6312 109.361C64.7287 109.77 64.7887 110.689 64.7662 111.413C64.7475 112.41 64.8262 113.055 65.1187 114.225C65.625 116.216 65.7225 117.469 65.49 118.211C65.3325 118.68 65.1787 118.856 64.65 119.111C63.4762 119.715 60.1575 120.049 58.3612 119.738L58.365 119.745ZM63.1087 118.144C63.7912 117.949 64.38 117.364 64.38 116.835C64.38 116.599 64.185 115.916 63.9487 115.313C63.48 114.161 62.6775 111.113 62.6775 110.606C62.6775 110.351 62.6962 110.333 63.0862 110.546L63.5175 110.783V110.235C63.4549 109.73 63.3431 109.233 63.1837 108.75C62.8125 107.636 62.775 107.618 60.4087 107.479L58.8075 107.4L58.2225 107.966C57.9008 108.297 57.6189 108.665 57.3825 109.061C57.1275 109.568 57.03 110.333 57.1875 110.505C57.225 110.565 57.6187 110.505 58.0462 110.408C58.3 110.332 58.5618 110.287 58.8262 110.273C58.8262 110.291 58.395 110.644 57.8512 111.015C55.5075 112.774 54.6862 113.846 54.6862 115.215C54.6862 116.64 56.0325 117.754 58.1437 118.088C59.5875 118.301 62.4 118.361 63.105 118.148L63.1087 118.144ZM94.8862 115.819C95.4712 115.114 95.3925 114.394 94.65 113.573C94.2187 113.141 93.7312 112.77 93.1837 112.478C92.6362 112.185 92.0887 111.851 91.5412 111.503C90.551 110.861 89.5338 110.261 88.4925 109.706C87.5925 109.219 86.715 108.709 85.8562 108.165L85.5037 107.891V102.521C85.5037 97.23 85.485 97.1513 85.2112 97.23C83.8425 97.6013 81.5775 97.7775 78.7087 97.7175L75.6037 97.68L76.0537 98.775C76.8937 100.845 77.325 103.62 77.325 106.804C77.325 107.996 77.2462 108.424 76.9537 109.264C76.7962 109.673 76.6612 110.085 76.5225 110.494C76.4625 110.67 76.68 110.805 77.4787 111.041C78.0637 111.218 78.9225 111.394 79.4137 111.45L80.3137 111.548L80.2162 112.448C80.1187 113.464 80.235 114.536 80.49 114.87C80.6475 115.065 81.2325 115.144 83.9475 115.26C85.9987 115.358 88.2262 115.571 89.9812 115.826C91.5037 116.063 93.1462 116.258 93.6337 116.258C94.455 116.276 94.5337 116.239 94.8825 115.826L94.8862 115.819ZM63.6187 106.68C63.6975 106.62 63.8137 105.566 63.855 104.318C64.0125 100.823 64.1475 100.313 65.9062 96.3675C67.35 93.1463 68.115 90.1388 68.055 88.0088L68.0175 86.7375L67.47 87.2663C66.3375 88.3988 67.1175 86.6213 68.4675 85.0388C69.4837 83.8275 69.8362 83.1638 69.99 82.0913C70.0687 81.66 70.2262 81.4463 70.89 80.94C73.3735 79.0639 75.2871 76.5349 76.4175 73.635C76.6912 72.93 77.3925 70.53 77.9812 68.3025C79.0762 64.1813 79.6612 62.4038 80.19 61.6425C80.385 61.35 80.4637 61.29 80.4262 61.485C80.143 62.5324 79.9214 63.5955 79.7625 64.6688C79.605 65.625 79.3125 67.5 79.1175 68.8088C78.7462 71.4863 78.3562 73.2038 77.8275 74.5313L77.475 75.4313L78.4125 77.8538C79.3875 80.3325 79.8375 82.1325 79.9162 83.8688L79.9762 84.8438L79.215 85.0013C78.2102 85.1791 77.3136 85.7396 76.7137 86.565C76.05 87.5213 75.6787 88.305 75.855 88.4775C75.9337 88.5563 76.89 88.7325 77.985 88.8675C79.6837 89.0625 80.3287 89.0625 82.575 88.9275C83.55 88.89 84.51 88.7925 85.4662 88.6538C85.68 88.575 85.8975 88.1475 86.2462 87.0338C87.0487 84.4763 87.2025 83.5763 87.105 81.78L87.0262 80.1975L87.435 79.6688C88.3912 78.4575 89.1337 76.2713 89.445 73.71C89.8162 70.5863 89.1337 64.0425 87.8625 58.4175C87.2587 55.74 87.0037 54.1388 87.0037 52.9688V51.9338L86.0475 52.0313C82.6087 52.4025 78.45 52.305 75.9112 51.7763C74.5237 51.5025 71.0287 50.4675 70.2675 50.1338L69.6637 49.86L69.585 50.5425C69.525 50.9138 69.4687 51.285 69.39 51.675C69.2737 52.0838 69.3112 52.1813 70.035 52.8863C70.935 53.805 71.2087 54.2738 71.2087 54.8963C71.2087 55.2863 70.995 55.6013 69.9 56.7338C69.1149 57.5715 68.2438 58.3244 67.3012 58.98L66.03 59.8388L65.4825 61.7325C63.5287 68.6663 63.1575 74.9738 64.4475 79.485L64.7587 80.6175L64.1325 81.3975C61.7887 84.345 60.4012 86.5913 60.1875 87.8438C60.0625 88.4605 59.9187 89.0733 59.7562 89.6813C59.25 91.6163 58.8562 94.4475 58.6837 97.515C58.5635 100.083 58.3948 102.648 58.1775 105.21L58.08 105.971L59.055 106.264C59.6025 106.44 60.4237 106.635 60.8925 106.714C61.77 106.849 63.3937 106.811 63.645 106.676L63.6187 106.68ZM82.5825 95.9363C84.105 95.8388 85.4925 95.6025 85.7662 95.37C85.8825 95.2913 86.0212 94.8825 86.0587 94.47L86.1562 93.7275L84.945 94.0013C83.9887 94.1963 83.0325 94.3125 82.0725 94.3913C79.7662 94.4888 77.445 94.4288 75.1575 94.1963C74.3962 94.08 74.3962 94.08 74.6287 95.0738C74.8237 95.8163 74.865 95.8538 76.8562 95.9925C78.1837 96.1088 80.04 96.09 82.5787 95.9325L82.5825 95.9363ZM81.3112 92.5388C83.3025 92.3625 85.785 91.935 86.2725 91.68C86.43 91.6013 86.565 91.3088 86.625 90.975L86.8012 89.94L86.8987 89.4525L86.4112 89.55C84.2437 90 82.6012 90.135 79.32 90.135C76.1175 90.135 75.7462 90.1163 74.9062 89.8238C74.5834 89.6877 74.2397 89.6078 73.89 89.5875C73.755 89.6663 73.7325 90.78 73.8525 91.56C73.9312 92.0288 74.01 92.1075 74.4787 92.2425C75.9637 92.6513 78.465 92.7488 81.315 92.5163L81.3112 92.5388ZM45.0637 74.9213C50.0625 73.4775 56.6062 69.2363 61.9575 63.9263C63.6975 62.1863 63.9112 61.9538 64.1437 61.1738L64.455 60.1763C64.4925 60.0975 64.1812 59.9625 63.7725 59.865C62.7 59.61 61.8787 58.9875 61.8787 58.4213C61.8787 58.0875 61.6837 57.7575 61.1175 57.15C60.1987 56.115 59.9662 55.665 59.8687 54.6713L59.79 53.8688L58.695 53.0888C58.0687 52.6388 55.8825 51.4275 53.5575 50.2575C51.7872 49.3939 50.0544 48.4555 48.3637 47.445C46.41 46.1363 45.1012 44.5725 44.3587 42.72C44.2237 42.3488 44.0475 42.0375 43.9875 42.0375C43.83 42.0375 39.435 46.275 37.56 48.2663C32.9325 53.1488 29.7487 57.3863 27.735 61.3125C27.2287 62.2875 26.6812 63.4425 26.5237 63.87L26.2312 64.65L26.5837 65.9588C26.7975 66.6638 27.2475 67.815 27.6 68.4975C28.83 70.92 30.2962 72.3825 32.7187 73.575C35.3175 74.865 37.62 75.315 41.4675 75.255C43.5375 75.2363 44.145 75.1763 45.06 74.9025L45.0637 74.9213ZM5.60998 57.7913C8.89123 54.8813 13.4212 51.6975 18.9712 48.3975C22.605 46.23 36.6487 39.1988 43.1137 36.3263C44.2875 35.7975 45.3412 35.31 45.4575 35.2538C45.5737 35.175 45.9075 34.335 46.2187 33.3975C47.5875 29.0625 48.27 28.2038 50.7487 27.6375C51.06 27.5588 51.1387 27.4613 51.1387 27.15C51.1387 26.5838 51.5287 25.275 51.8625 24.69C52.1175 24.24 52.1175 24.2213 51.9 24.2813C51.765 24.3188 50.9437 24.555 50.085 24.81C38.1712 28.2488 27.7612 32.8163 18.7762 38.52C9.18748 44.6138 3.65998 51.9188 2.05873 60.6675L1.94248 61.3125L3.11623 60.1613C3.74248 59.5163 4.87498 58.4625 5.61748 57.8175L5.60998 57.7913ZM93.99 59.4525C94.9462 58.965 96.4312 56.7188 96.9787 54.9413C97.1362 54.315 97.4475 53.73 97.8975 53.2425C99.3412 51.6413 100.534 48.7313 100.552 46.74C100.552 43.635 98.7937 42.4425 96.2362 43.77C95.9025 43.9275 95.6325 44.0438 95.5912 44.0063C95.4562 43.8713 96.1762 43.1663 97.0575 42.6188C98.2087 41.8575 98.4262 41.4075 98.4262 39.7875C98.4432 38.4781 98.0541 37.1955 97.3125 36.1163C96.96 35.5875 96.825 35.2388 96.8812 35.0213L97.2337 33.7125C97.7212 31.9725 97.545 29.9813 96.7837 28.7138C95.6512 26.8013 94.2637 25.8638 92.3287 25.7063L91.1962 25.6275L91.86 26.37C93.8325 28.5 94.7887 31.1738 94.3987 33.4613C94.2037 34.635 94.0275 34.8675 92.895 35.3175L92.2312 35.5913L92.31 36.4913C92.445 37.9575 92.1937 39.03 91.2562 41.0025C90.7875 42 90.435 42.8963 90.4762 42.9938C90.5925 43.3275 91.8825 43.95 92.8987 44.205L93.8962 44.4413L93.27 44.655C92.4487 44.91 92.2725 45.2813 92.2725 46.6275C92.2725 47.8575 92.4487 48.3675 93.345 49.7138C93.7537 50.2988 94.0275 50.9063 94.0687 51.255C94.1475 51.8025 94.1287 51.84 93.6787 51.9975C93.1686 52.1407 92.6441 52.2262 92.115 52.2525C90.2775 52.3688 90.1425 52.4288 89.3212 53.2088C88.5787 53.9138 88.56 53.9513 88.56 54.7313C88.56 55.8038 88.9687 57.975 89.2237 58.2675C89.5575 58.62 91.41 59.5388 92.1337 59.6738C92.7579 59.8305 93.4178 59.7545 93.99 59.46V59.4525ZM66.9375 57.99C68.13 57.0525 69.0675 56.115 69.5925 55.3125C69.9262 54.825 69.945 54.7275 69.7875 54.315C69.5137 53.6888 67.7175 52.0688 66.72 51.5813C66.0553 51.2835 65.3522 51.0802 64.6312 50.9775L63.4012 50.82L62.64 49.8638C61.0575 47.91 60.18 46.3875 58.9275 43.4363C57.8325 40.935 56.8762 39.4725 55.3537 38.025C54.7275 37.44 54.2812 36.9525 54.3187 36.9525C54.3975 36.9525 55.14 37.3238 55.9987 37.7738C57.4237 38.535 57.6 38.595 58.245 38.4975C60.57 38.2238 62.6212 35.55 63.3637 31.8C63.5775 30.7463 64.0087 29.67 64.4587 29.025C64.4775 29.0063 65.3775 29.5913 66.4312 30.3525C69.1087 32.2463 69.6937 32.5388 71.2162 32.5988C72.2137 32.6363 72.78 32.5613 74.5762 32.13C78.405 31.1925 82.545 30.8213 85.065 31.155C86.49 31.35 88.5412 31.9763 90.0637 32.6963C91.5675 33.4013 91.86 33.4388 92.3475 33.0075C92.7562 32.655 92.7562 32.5988 92.7562 31.29C92.7375 29.355 92.0325 27.2663 90.96 26.0175C90.4125 25.3725 88.8712 24.3188 87.345 23.5163C86.8024 23.2285 86.2624 22.936 85.725 22.6388C85.0012 22.2075 84.1837 22.2675 81.9562 22.8525C79.3762 23.5163 78.6937 23.5163 75.7462 22.755C73.245 22.1288 73.0912 22.11 70.6275 22.5C69.3187 22.695 66.0375 22.5788 64.9425 22.2863C64.395 22.1288 63.8475 21.975 63.3225 21.78C62.3662 21.4088 60.705 21.3488 59.2012 21.6225C56.2125 22.1513 53.9475 23.7713 53.1262 25.9763C52.695 27.09 52.755 27.6188 53.3212 27.9675C54.2212 28.5338 55.41 30.0788 55.41 30.6825C55.41 30.72 55.1175 30.4688 54.7837 30.1163C53.9437 29.2388 53.1825 28.845 52.2825 28.845C51.7002 28.8612 51.134 29.0397 50.6476 29.3603C50.1613 29.681 49.7742 30.1311 49.53 30.66C49.2672 31.35 49.0455 32.055 48.8662 32.7713C48.3187 34.7625 47.8312 35.82 46.7962 37.2263C45.8775 38.4975 45.7425 39.0638 46.0725 40.4888C46.8937 44.0813 48.3187 45.5288 54.2737 48.9075C57.3975 50.685 58.9987 51.6825 60.1725 52.56C61.0725 53.2238 61.0912 53.265 61.0125 53.7713C60.8362 54.945 61.5787 56.2125 63.045 57.2475C63.4162 57.5025 63.6487 57.7763 63.6487 57.9713C63.6487 58.3238 64.6462 58.8113 65.3662 58.8113C65.775 58.8113 66.09 58.635 66.93 57.99H66.9375ZM91.02 51.405C93.285 51.4838 93.4012 51.3075 92.1937 49.9013C90.9225 48.435 90.5737 47.2463 91.0425 45.9375L91.2375 45.4313L90.435 45.0413C90.1612 44.9063 89.8875 44.7675 89.6137 44.67C89.4787 45.1988 89.34 45.705 89.2237 46.2338C88.9312 47.4263 88.5787 50.5125 88.56 51.8213C88.56 51.9375 88.755 51.9 89.0887 51.6863C89.5575 51.4125 89.7937 51.375 91.0237 51.4125L91.02 51.405ZM83.4225 51.2888C84.7912 51.21 86.1975 51.1125 86.5687 51.0525L87.2512 50.955L87.33 48.7088C87.4462 45.5063 87.915 43.6125 89.3025 40.5825C90.2775 38.4338 90.7087 36.5588 90.495 35.1525C90.4162 34.5488 90.3787 34.5075 89.5575 34.155C88.0537 33.5579 86.4876 33.1315 84.8887 32.8838C83.3475 32.67 78.8137 32.7863 77.115 33.12C76.41 33.2363 75.1237 33.51 74.265 33.7238C72.135 34.2113 71.0025 34.155 69.3825 33.45C67.7812 32.745 66.765 32.1038 65.8087 31.2038C65.0475 30.4988 64.9687 30.4613 64.7737 30.6975C64.6162 30.8738 64.5375 31.4025 64.4812 32.535C64.4212 34.275 64.1475 35.19 63.3862 36.42C63.2171 36.6731 63.0727 36.9418 62.955 37.2225C62.955 37.2825 63.54 37.965 64.2637 38.7075C66.765 41.3063 67.995 41.97 69.9675 41.8313C70.6125 41.7713 71.0625 41.7938 71.0625 41.8688C71.0625 42.0263 69.7912 43.02 69.2662 43.2938C69.0112 43.4288 68.955 43.5675 68.9925 43.86L69.3037 45.9113C69.48 47.085 69.615 47.6288 69.7912 47.7863C70.26 48.1763 72.6825 49.4288 74.205 50.0513C76.1962 50.8538 77.2912 51.1463 78.8137 51.2813C80.6887 51.4388 80.7262 51.4388 83.4225 51.2813V51.2888ZM67.2712 49.14C67.3087 49.08 67.1737 47.9475 66.9187 46.6388C66.6075 44.8613 66.4312 44.2163 66.2362 44.04C66.1012 43.9238 65.3775 43.4138 64.6537 42.8888C63.7028 42.205 62.8018 41.4543 61.9575 40.6425L60.6112 39.315L59.8875 39.6863L59.1262 40.095C59.1903 40.4001 59.295 40.6952 59.4375 40.9725C59.6512 41.4413 60.0825 42.5925 60.3937 43.53C61.215 45.9713 61.86 47.145 63.48 49.2713L64.0837 50.0738L65.235 50.25C65.88 50.3475 66.525 50.4863 66.7012 50.5425C66.975 50.6588 67.0125 50.6025 67.0912 49.9763C67.1287 49.7025 67.1887 49.41 67.2675 49.1363L67.2712 49.14ZM92.0175 24.8438C93.015 24.7463 93.1912 24.6075 92.76 24.1613C92.4862 23.8875 91.86 23.8688 91.3537 24.1013C91.02 24.2588 90.945 24.2175 90.4162 23.6513C89.8687 23.0475 89.8312 23.025 89.145 23.1038C88.5187 23.1825 88.4212 23.1638 88.3425 22.9088C88.0986 22.4899 87.7955 22.1084 87.4425 21.7763C86.9989 21.2722 86.4443 20.8781 85.8225 20.625C84.6112 20.1563 83.9287 20.2163 82.7737 20.8613C79.4325 22.6763 79.5712 22.6575 76.3462 21.8363C73.3387 21.075 71.0925 20.295 70.3687 19.8038C69.765 19.395 68.475 18.945 67.3987 18.8063C66.5962 18.69 66.09 18.8663 65.3287 19.4888L64.92 19.8225L65.2912 20.4675C65.7975 21.3675 65.7412 21.4238 64.98 20.76C64.1587 20.0775 63.1837 19.6088 62.5575 19.5863C62.1075 19.5863 60.78 20.1713 60.6225 20.4263C60.5625 20.505 60.975 20.6025 61.5225 20.64C62.0887 20.7 62.8687 20.895 63.3975 21.1088C64.7662 21.6938 65.4675 21.8888 66.7162 22.0088C68.085 22.1438 70.5637 21.99 70.8562 21.7538C71.0137 21.6188 71.4412 21.5963 72.3412 21.675C73.5337 21.7538 74.0212 21.87 76.8525 22.6313C78.495 23.0813 79.6462 23.04 81.6 22.515C82.5 22.26 83.6325 22.0088 84.1012 21.9488C84.9037 21.87 85.0575 21.9113 86.31 22.4775C88.3012 23.3775 89.3587 23.9438 89.9437 24.4688C90.5287 24.975 90.6075 24.975 92.0137 24.8588L92.0175 24.8438ZM80.8837 21.4275L82.0762 20.8013L82.0387 19.59C82.02 18.75 81.9787 17.9288 81.9412 17.1113L81.8437 15.8625L80.6512 16.7813C79.9462 17.3288 79.2637 17.7375 78.9712 17.7975C78.1125 17.955 73.875 17.7975 73.4812 17.5838C72.9567 17.1963 72.4661 16.7647 72.015 16.2938L70.92 15.18L70.9012 15.8438C70.9012 16.1963 70.8637 16.8 70.785 17.1713C70.6875 17.8763 70.6875 17.895 71.4487 18.8513C71.8575 19.38 72.1912 19.8488 72.1912 19.905C72.1912 20.2763 77.835 22.035 79.1062 22.0538C79.515 22.0538 80.025 21.8775 80.8837 21.4275ZM78.6187 16.9913C80.025 16.7175 80.7075 15.7013 81.2362 13.125C81.7837 10.35 82.0575 5.99625 81.8025 4.14C81.5662 2.46 79.6912 1.7175 76.1175 1.83375C73.89 1.9125 72.9712 2.12625 72.21 2.77125C71.7412 3.16125 71.7412 3.2025 71.5275 5.055C71.1375 8.61 71.7225 13.6688 72.7387 15.5625C73.2262 16.4813 73.6575 16.8113 74.5537 16.9688C75.57 17.145 77.7375 17.145 78.615 16.9875L78.6187 16.9913Z" fill="black"/>
            

    </g>
    <g id='VS'>
            <path d="M101.535 17.605L81.3541 7.88899C80.2144 7.33948 78.932 7.15814 77.6847 7.37011C76.4373 7.58208 75.2868 8.17686 74.3926 9.07199L8.3301 69.3C7.52857 70.0273 7.04878 71.0432 6.99627 72.1243C6.94376 73.2053 7.32283 74.2629 8.0501 75.0645C8.1376 75.159 8.2251 75.25 8.3196 75.334L13.7131 80.234C14.4179 80.8754 15.325 81.2497 16.2771 81.2919C17.2291 81.3341 18.1658 81.0416 18.9246 80.465L98.4971 20.125C99.0981 19.6689 99.8145 19.3897 100.566 19.3186C101.317 19.2476 102.073 19.3877 102.749 19.7231C103.425 20.0585 103.993 20.5758 104.391 21.217C104.789 21.8581 105 22.5975 105 23.352V23.1175C105 21.9656 104.675 20.8372 104.062 19.862C103.449 18.8868 102.573 18.1045 101.535 17.605Z" fill="#0065A9"/>
            <path d="M101.535 94.395L81.3541 104.115C80.2141 104.662 78.9321 104.843 77.6851 104.631C76.4381 104.419 75.2876 103.825 74.3926 102.932L8.3301 42.7C7.52857 41.9727 7.04878 40.9568 6.99627 39.8758C6.94376 38.7947 7.32283 37.7371 8.0501 36.9355C8.1376 36.841 8.2251 36.75 8.3196 36.666L13.7131 31.766C14.4186 31.1219 15.3278 30.7459 16.2822 30.7037C17.2366 30.6615 18.1755 30.9557 18.9351 31.535L98.4971 91.875C99.0981 92.3311 99.8145 92.6104 100.566 92.6814C101.317 92.7524 102.073 92.6123 102.749 92.2769C103.425 91.9415 103.993 91.4242 104.391 90.783C104.789 90.1419 105 89.4025 105 88.648V88.9C104.996 90.0488 104.669 91.1733 104.057 92.1451C103.444 93.1168 102.57 93.8965 101.535 94.395Z" fill="#007ACC"/>
            <path d="M81.3539 104.114C80.2139 104.662 78.9319 104.843 77.6849 104.631C76.4379 104.419 75.2874 103.825 74.3924 102.931C74.895 103.428 75.5329 103.764 76.226 103.899C76.9192 104.034 77.6368 103.962 78.2889 103.691C78.941 103.42 79.4987 102.963 79.892 102.376C80.2853 101.79 80.4968 101.1 80.4999 100.394V11.606C80.5005 10.8965 80.2905 10.2028 79.8965 9.61274C79.5025 9.02271 78.9423 8.56288 78.2867 8.29152C77.6312 8.02016 76.9098 7.94946 76.2141 8.0884C75.5183 8.22734 74.8795 8.56965 74.3784 9.07197C75.2728 8.17717 76.423 7.58235 77.6702 7.3698C78.9173 7.15724 80.1997 7.33744 81.3399 7.88547L101.517 17.5875C102.559 18.0845 103.438 18.8657 104.054 19.8411C104.67 20.8165 104.998 21.9463 105 23.1V88.9C105 90.0528 104.675 91.1822 104.061 92.1581C103.447 93.134 102.571 93.9167 101.531 94.416L81.3539 104.114Z" fill="#1F9CF0"/>
            
    </g>
    <g id='GIT_HUB'>
            <path fill-rule="evenodd" clip-rule="evenodd" d="M44 0C19.69 0 0 19.69 0 44C0 63.47 12.595 79.915 30.085 85.745C32.285 86.13 33.11 84.81 33.11 83.655C33.11 82.61 33.055 79.145 33.055 75.46C22 77.495 19.14 72.765 18.26 70.29C17.765 69.025 15.62 65.12 13.75 64.075C12.21 63.25 10.01 61.215 13.695 61.16C17.16 61.105 19.635 64.35 20.46 65.67C24.42 72.325 30.745 70.455 33.275 69.3C33.66 66.44 34.815 64.515 36.08 63.415C26.29 62.315 16.06 58.52 16.06 41.69C16.06 36.905 17.765 32.945 20.57 29.865C20.13 28.765 18.59 24.255 21.01 18.205C21.01 18.205 24.695 17.05 33.11 22.715C36.63 21.725 40.37 21.23 44.11 21.23C47.85 21.23 51.59 21.725 55.11 22.715C63.525 16.995 67.21 18.205 67.21 18.205C69.63 24.255 68.09 28.765 67.65 29.865C70.455 32.945 72.16 36.85 72.16 41.69C72.16 58.575 61.875 62.315 52.085 63.415C53.68 64.79 55.055 67.43 55.055 71.555C55.055 77.44 55 82.17 55 83.655C55 84.81 55.825 86.185 58.025 85.745C66.7597 82.796 74.3497 77.1822 79.7268 69.6937C85.1039 62.2052 87.9974 53.219 88 44C88 19.69 68.31 0 44 0Z" fill="black"/>
            

    </g>
    <g id='SMALL_GIT_HUB'>

       
            <path fill-rule="evenodd" clip-rule="evenodd" d="M10 0C4.475 0 0 4.475 0 10C0 14.425 2.8625 18.1625 6.8375 19.4875C7.3375 19.575 7.525 19.275 7.525 19.0125C7.525 18.775 7.5125 17.9875 7.5125 17.15C5 17.6125 4.35 16.5375 4.15 15.975C4.0375 15.6875 3.55 14.8 3.125 14.5625C2.775 14.375 2.275 13.9125 3.1125 13.9C3.9 13.8875 4.4625 14.625 4.65 14.925C5.55 16.4375 6.9875 16.0125 7.5625 15.75C7.65 15.1 7.9125 14.6625 8.2 14.4125C5.975 14.1625 3.65 13.3 3.65 9.475C3.65 8.3875 4.0375 7.4875 4.675 6.7875C4.575 6.5375 4.225 5.5125 4.775 4.1375C4.775 4.1375 5.6125 3.875 7.525 5.1625C8.325 4.9375 9.175 4.825 10.025 4.825C10.875 4.825 11.725 4.9375 12.525 5.1625C14.4375 3.8625 15.275 4.1375 15.275 4.1375C15.825 5.5125 15.475 6.5375 15.375 6.7875C16.0125 7.4875 16.4 8.375 16.4 9.475C16.4 13.3125 14.0625 14.1625 11.8375 14.4125C12.2 14.725 12.5125 15.325 12.5125 16.2625C12.5125 17.6 12.5 18.675 12.5 19.0125C12.5 19.275 12.6875 19.5875 13.1875 19.4875C15.1726 18.8173 16.8976 17.5414 18.1197 15.8395C19.3418 14.1375 19.9994 12.0952 20 10C20 4.475 15.525 0 10 0Z" />
            
            

    </g>

</svg>

    


        